<svg id="Capa_1" data-name="Capa 1" xmlns="http://www.w3.org/2000/svg" xmlns:xlink="http://www.w3.org/1999/xlink" viewBox="0 0 500 500"><defs><style>.cls-1{fill:url(#Degradado_sin_nombre_5);}.cls-2{fill:url(#Degradado_sin_nombre_7);}.cls-3{fill:url(#Degradado_sin_nombre_8);}.cls-4{fill:url(#Degradado_sin_nombre_9);}.cls-5{fill:#16b1c5;}.cls-6{fill:#1a6ab2;}.cls-7{fill:#ad2c87;}.cls-8{font-size:180px;}.cls-10,.cls-8,.cls-9{fill:#1d1d1b;stroke:#1d1d1b;stroke-miterlimit:10;}.cls-8,.cls-9{stroke-width:3px;font-family:AgencyFB-Bold, Agency FB;font-weight:700;}.cls-9{font-size:100px;}.cls-10{font-size:72px;font-family:AgencyFB-Reg, Agency FB;}</style><linearGradient id="Degradado_sin_nombre_5" x1="144.84" y1="224.29" x2="357.78" y2="224.29" gradientUnits="userSpaceOnUse"><stop offset="0.01" stop-color="#e33a8c"/><stop offset="1" stop-color="#3b5198"/></linearGradient><linearGradient id="Degradado_sin_nombre_7" x1="155.54" y1="181.94" x2="349.66" y2="181.94" gradientUnits="userSpaceOnUse"><stop offset="0.2" stop-color="#fbbc1f"/><stop offset="1" stop-color="#3d77bb"/></linearGradient><linearGradient id="Degradado_sin_nombre_8" x1="180.07" y1="144.53" x2="346.48" y2="144.53" gradientUnits="userSpaceOnUse"><stop offset="0" stop-color="#fbbf1c"/><stop offset="1" stop-color="#db6e73"/></linearGradient><linearGradient id="Degradado_sin_nombre_9" x1="207.4" y1="110.03" x2="345.25" y2="110.03" gradientUnits="userSpaceOnUse"><stop offset="0" stop-color="#f18531"/><stop offset="0.99" stop-color="#e84742"/></linearGradient></defs><title>LogoGNCE_vectorIZADO</title><polygon class="cls-1" points="144.84 202.18 357.78 205.86 357.78 242.72 144.84 246.41 144.84 205.86 144.84 202.18"/><polygon class="cls-2" points="155.54 198 349.66 199.59 349.66 164.29 155.54 166.24 155.54 198"/><polygon class="cls-3" points="180.07 131.82 180.07 161.65 346.48 160.06 346.48 127.41 180.07 131.82"/><polyline class="cls-4" points="207.42 100.06 207.4 127.41 345.25 124.77 345.25 92.65 207.42 100.06"/><polygon class="cls-5" points="346.48 62.12 346.48 88.06 242.54 95.65 242.54 76.41 346.48 62.12"/><polygon class="cls-6" points="349.66 57.53 349.66 34.06 269.54 52.77 268.74 69.4 349.66 57.53"/><polygon class="cls-7" points="352.89 7.76 352.89 29.18 293.48 43.88 293.48 29.65 352.89 7.76"/><text class="cls-8" transform="translate(65.24 405.14) scale(1.88 1)">G</text><text class="cls-8" transform="translate(276.52 405.14) scale(1.88 1)">N</text><text class="cls-9" transform="translate(226.92 376.35)">&amp;</text><text class="cls-10" transform="translate(74 481.26) scale(1.13 1)">CONSULTORÍA</text></svg>