<?xml version="1.0" encoding="UTF-8"?>
<!DOCTYPE svg PUBLIC "-//W3C//DTD SVG 1.1//EN" "http://www.w3.org/Graphics/SVG/1.1/DTD/svg11.dtd">
<svg xmlns="http://www.w3.org/2000/svg" version="1.1" width="271px" height="254px" style="shape-rendering:geometricPrecision; text-rendering:geometricPrecision; image-rendering:optimizeQuality; fill-rule:evenodd; clip-rule:evenodd" xmlns:xlink="http://www.w3.org/1999/xlink">
<g><path style="opacity:0.439" fill="#9a7a94" d="M 187.5,-0.5 C 188.833,-0.5 190.167,-0.5 191.5,-0.5C 191.795,1.73535 191.461,3.73535 190.5,5.5C 190.5,4.16667 190.5,2.83333 190.5,1.5C 189.167,1.5 187.833,1.5 186.5,1.5C 186.833,0.833333 187.167,0.166667 187.5,-0.5 Z"/></g>
<g><path style="opacity:0.996" fill="#a66a98" d="M 185.5,1.5 C 184.71,2.79423 183.71,3.9609 182.5,5C 178.506,5.94452 174.506,6.77785 170.5,7.5C 175.32,5.26415 180.32,3.26415 185.5,1.5 Z"/></g>
<g><path style="opacity:1" fill="#9d3185" d="M 185.5,1.5 C 185.833,1.5 186.167,1.5 186.5,1.5C 187.833,1.5 189.167,1.5 190.5,1.5C 190.5,2.83333 190.5,4.16667 190.5,5.5C 190.5,5.83333 190.5,6.16667 190.5,6.5C 189.833,7.83333 189.167,9.16667 188.5,10.5C 185.15,10.335 181.817,10.5017 178.5,11C 176.431,12.5234 174.097,13.3568 171.5,13.5C 171.953,12.5416 172.619,11.7083 173.5,11C 170.445,10.3658 167.445,10.5325 164.5,11.5C 164.833,10.8333 165.167,10.1667 165.5,9.5C 166.93,8.46253 168.597,7.79586 170.5,7.5C 174.506,6.77785 178.506,5.94452 182.5,5C 183.71,3.9609 184.71,2.79423 185.5,1.5 Z"/></g>
<g><path style="opacity:0.988" fill="#964e89" d="M 165.5,9.5 C 165.167,10.1667 164.833,10.8333 164.5,11.5C 161.09,11.3838 159.756,13.0504 160.5,16.5C 164.323,15.6641 167.989,14.6641 171.5,13.5C 174.097,13.3568 176.431,12.5234 178.5,11C 181.817,10.5017 185.15,10.335 188.5,10.5C 188.5,10.8333 188.5,11.1667 188.5,11.5C 188.167,11.5 187.833,11.5 187.5,11.5C 186.209,11.2627 185.209,11.596 184.5,12.5C 184.167,12.5 183.833,12.5 183.5,12.5C 182.209,12.2627 181.209,12.596 180.5,13.5C 179.833,13.5 179.167,13.5 178.5,13.5C 177.209,13.2627 176.209,13.596 175.5,14.5C 175.167,14.5 174.833,14.5 174.5,14.5C 172.302,14.8751 170.302,15.5418 168.5,16.5C 166.901,16.2322 165.568,16.5655 164.5,17.5C 162.833,17.5 161.167,17.5 159.5,17.5C 159.5,15.8333 159.5,14.1667 159.5,12.5C 161.033,10.7549 163.033,9.75488 165.5,9.5 Z"/></g>
<g><path style="opacity:1" fill="#b73188" d="M 171.5,13.5 C 167.989,14.6641 164.323,15.6641 160.5,16.5C 159.756,13.0504 161.09,11.3838 164.5,11.5C 167.445,10.5325 170.445,10.3658 173.5,11C 172.619,11.7083 171.953,12.5416 171.5,13.5 Z"/></g>
<g><path style="opacity:0.141" fill="#abb4d1" d="M 183.5,12.5 C 183.5,13.1667 183.833,13.5 184.5,13.5C 184.5,14.1667 184.167,14.5 183.5,14.5C 182.5,14.5 181.5,14.5 180.5,14.5C 180.5,14.1667 180.5,13.8333 180.5,13.5C 181.209,12.596 182.209,12.2627 183.5,12.5 Z"/></g>
<g><path style="opacity:0.749" fill="#abb1c7" d="M 190.5,6.5 C 190.474,12.196 190.141,17.8627 189.5,23.5C 189.665,20.4816 189.498,17.4816 189,14.5C 187.644,13.6198 186.144,13.2865 184.5,13.5C 184.5,13.1667 184.5,12.8333 184.5,12.5C 185.209,11.596 186.209,11.2627 187.5,11.5C 187.833,12.8333 188.167,12.8333 188.5,11.5C 188.5,11.1667 188.5,10.8333 188.5,10.5C 189.167,9.16667 189.833,7.83333 190.5,6.5 Z"/></g>
<g><path style="opacity:0.184" fill="#dfd9f2" d="M 174.5,14.5 C 174.5,14.8333 174.5,15.1667 174.5,15.5C 172.579,16.3627 170.579,17.0293 168.5,17.5C 168.5,17.1667 168.5,16.8333 168.5,16.5C 170.302,15.5418 172.302,14.8751 174.5,14.5 Z"/></g>
<g><path style="opacity:0.075" fill="#c5b4d2" d="M 159.5,12.5 C 159.5,14.1667 159.5,15.8333 159.5,17.5C 161.167,17.5 162.833,17.5 164.5,17.5C 161.41,20.0541 157.744,21.0541 153.5,20.5C 155.292,19.6909 157.292,19.1909 159.5,19C 158.189,16.7265 158.189,14.5598 159.5,12.5 Z"/></g>
<g><path style="opacity:0.976" fill="#3d709d" d="M 175.5,14.5 C 176.209,13.596 177.209,13.2627 178.5,13.5C 178.5,13.8333 178.5,14.1667 178.5,14.5C 178.624,15.1968 178.624,16.0301 178.5,17C 174.608,17.4188 170.942,18.2521 167.5,19.5C 161.657,20.9928 155.657,22.1595 149.5,23C 147.963,24.1096 147.297,25.6096 147.5,27.5C 157.15,26.0583 166.817,24.725 176.5,23.5C 180.119,22.8195 183.786,22.3195 187.5,22C 188.406,20.3005 188.739,18.4672 188.5,16.5C 186.447,16.5979 184.78,15.9313 183.5,14.5C 184.167,14.5 184.5,14.1667 184.5,13.5C 186.144,13.2865 187.644,13.6198 189,14.5C 189.498,17.4816 189.665,20.4816 189.5,23.5C 186.713,24.4767 183.713,24.81 180.5,24.5C 178.901,24.2322 177.568,24.5655 176.5,25.5C 175.833,25.5 175.5,25.8333 175.5,26.5C 172.5,26.5 169.5,26.5 166.5,26.5C 165.209,26.2627 164.209,26.596 163.5,27.5C 163.167,27.5 162.833,27.5 162.5,27.5C 159.287,27.19 156.287,27.5233 153.5,28.5C 152.041,28.4326 150.708,28.7659 149.5,29.5C 148.5,29.5 147.5,29.5 146.5,29.5C 146.5,26.8333 146.5,24.1667 146.5,21.5C 148.861,21.3259 151.194,20.9926 153.5,20.5C 157.744,21.0541 161.41,20.0541 164.5,17.5C 165.833,17.5 167.167,17.5 168.5,17.5C 170.579,17.0293 172.579,16.3627 174.5,15.5C 176.224,15.5393 176.557,15.206 175.5,14.5 Z"/></g>
<g><path style="opacity:1" fill="#296bb2" d="M 176.5,23.5 C 166.817,24.725 157.15,26.0583 147.5,27.5C 147.297,25.6096 147.963,24.1096 149.5,23C 155.657,22.1595 161.657,20.9928 167.5,19.5C 172.526,18.6054 177.526,18.6054 182.5,19.5C 180.099,20.3576 178.099,21.691 176.5,23.5 Z"/></g>
<g><path style="opacity:1" fill="#276aac" d="M 178.5,14.5 C 179.167,14.5 179.833,14.5 180.5,14.5C 181.5,14.5 182.5,14.5 183.5,14.5C 184.78,15.9313 186.447,16.5979 188.5,16.5C 188.739,18.4672 188.406,20.3005 187.5,22C 183.786,22.3195 180.119,22.8195 176.5,23.5C 178.099,21.691 180.099,20.3576 182.5,19.5C 177.526,18.6054 172.526,18.6054 167.5,19.5C 170.942,18.2521 174.608,17.4188 178.5,17C 178.624,16.0301 178.624,15.1968 178.5,14.5 Z"/></g>
<g><path style="opacity:1" fill="#1ba3cc" d="M 175.5,27.5 C 175.5,27.1667 175.5,26.8333 175.5,26.5C 176.5,26.5 177.5,26.5 178.5,26.5C 180.833,26.5 183.167,26.5 185.5,26.5C 185.5,28.1667 185.5,29.8333 185.5,31.5C 180.874,29.8329 176.207,29.4996 171.5,30.5C 165.964,31.6687 160.631,33.0021 155.5,34.5C 153.204,34.1959 152.871,33.1959 154.5,31.5C 161.064,30.5079 167.73,29.6746 174.5,29C 175.167,28.6667 175.833,28.3333 176.5,28C 176.272,27.6012 175.938,27.4346 175.5,27.5 Z"/></g>
<g><path style="opacity:1" fill="#11a6d2" d="M 171.5,30.5 C 171.611,31.1174 171.944,31.6174 172.5,32C 171.376,32.2492 170.376,32.7492 169.5,33.5C 171.135,34.6808 172.802,34.6808 174.5,33.5C 174.833,33.8333 175.167,34.1667 175.5,34.5C 174.807,35.5178 174.141,36.5178 173.5,37.5C 168.901,37.8 164.401,37.4667 160,36.5C 159.583,37.756 158.75,38.4226 157.5,38.5C 156.655,37.3285 155.989,35.9952 155.5,34.5C 160.631,33.0021 165.964,31.6687 171.5,30.5 Z"/></g>
<g><path style="opacity:1" fill="#3cabba" d="M 163.5,27.5 C 164.209,26.596 165.209,26.2627 166.5,26.5C 169.287,27.4767 172.287,27.81 175.5,27.5C 175.938,27.4346 176.272,27.6012 176.5,28C 175.833,28.3333 175.167,28.6667 174.5,29C 167.73,29.6746 161.064,30.5079 154.5,31.5C 150.46,31.5915 146.793,32.7581 143.5,35C 144.38,36.3561 144.714,37.8561 144.5,39.5C 140.158,39.7395 135.824,40.0728 131.5,40.5C 131.343,39.1266 131.51,37.7932 132,36.5C 135.014,35.4612 137.514,33.7945 139.5,31.5C 142.833,30.8333 146.167,30.1667 149.5,29.5C 150.708,28.7659 152.041,28.4326 153.5,28.5C 156.287,27.5233 159.287,27.19 162.5,27.5C 163.849,28.6441 164.183,28.6441 163.5,27.5 Z"/></g>
<g><path style="opacity:1" fill="#179fcf" d="M 185.5,31.5 C 185.785,33.288 185.452,34.9547 184.5,36.5C 180.906,37.4259 177.24,37.7592 173.5,37.5C 174.141,36.5178 174.807,35.5178 175.5,34.5C 175.167,34.1667 174.833,33.8333 174.5,33.5C 172.802,34.6808 171.135,34.6808 169.5,33.5C 170.376,32.7492 171.376,32.2492 172.5,32C 171.944,31.6174 171.611,31.1174 171.5,30.5C 176.207,29.4996 180.874,29.8329 185.5,31.5 Z"/></g>
<g><path style="opacity:1" fill="#17aac0" d="M 154.5,31.5 C 152.871,33.1959 153.204,34.1959 155.5,34.5C 155.989,35.9952 156.655,37.3285 157.5,38.5C 157.5,38.8333 157.5,39.1667 157.5,39.5C 153.167,39.5 148.833,39.5 144.5,39.5C 144.714,37.8561 144.38,36.3561 143.5,35C 146.793,32.7581 150.46,31.5915 154.5,31.5 Z"/></g>
<g><path style="opacity:1" fill="#4fa5c0" d="M 176.5,25.5 C 177.568,24.5655 178.901,24.2322 180.5,24.5C 182.265,25.4614 184.265,25.7947 186.5,25.5C 186.5,29.8333 186.5,34.1667 186.5,38.5C 179.847,39.0543 173.18,39.3877 166.5,39.5C 163.5,39.5 160.5,39.5 157.5,39.5C 157.5,39.1667 157.5,38.8333 157.5,38.5C 158.75,38.4226 159.583,37.756 160,36.5C 164.401,37.4667 168.901,37.8 173.5,37.5C 177.24,37.7592 180.906,37.4259 184.5,36.5C 185.452,34.9547 185.785,33.288 185.5,31.5C 185.5,29.8333 185.5,28.1667 185.5,26.5C 183.167,26.5 180.833,26.5 178.5,26.5C 178.158,25.6618 177.492,25.3284 176.5,25.5 Z"/></g>
<g><path style="opacity:1" fill="#58abb3" d="M 139.5,31.5 C 137.514,33.7945 135.014,35.4612 132,36.5C 131.51,37.7932 131.343,39.1266 131.5,40.5C 135.824,40.0728 140.158,39.7395 144.5,39.5C 148.833,39.5 153.167,39.5 157.5,39.5C 160.5,39.5 163.5,39.5 166.5,39.5C 159.389,41.0234 152.056,41.6901 144.5,41.5C 140.958,41.1872 137.625,41.5206 134.5,42.5C 132.833,42.5 131.167,42.5 129.5,42.5C 129.335,39.4816 129.502,36.4816 130,33.5C 133.049,32.3899 136.216,31.7233 139.5,31.5 Z"/></g>
<g><path style="opacity:0.765" fill="#d58e83" d="M 166.5,55.5 C 166.5,55.1667 166.5,54.8333 166.5,54.5C 169.609,54.7359 172.609,54.4025 175.5,53.5C 178.5,53.5 181.5,53.5 184.5,53.5C 185.089,49.0293 184.423,45.0293 182.5,41.5C 174.854,42.207 167.187,42.5403 159.5,42.5C 167.314,41.125 175.314,40.125 183.5,39.5C 184.442,39.6082 185.275,39.9415 186,40.5C 186.802,45.419 186.635,50.2523 185.5,55C 179.175,55.4995 172.842,55.6662 166.5,55.5 Z"/></g>
<g><path style="opacity:0.149" fill="#b2dad9" d="M 134.5,42.5 C 137.625,41.5206 140.958,41.1872 144.5,41.5C 144.5,41.8333 144.5,42.1667 144.5,42.5C 143.391,42.5569 142.391,42.8902 141.5,43.5C 139.393,42.5318 137.059,42.1984 134.5,42.5 Z"/></g>
<g><path style="opacity:1" fill="#f47933" d="M 154.5,43.5 C 155.5,43.5 156.5,43.5 157.5,43.5C 157.833,43.5 158.167,43.5 158.5,43.5C 158.5,43.8333 158.5,44.1667 158.5,44.5C 156.958,45.3007 155.292,45.634 153.5,45.5C 153.5,46.5 153.5,47.5 153.5,48.5C 152.127,48.3433 150.793,48.51 149.5,49C 150.883,50.2708 151.883,51.7708 152.5,53.5C 151.5,53.5 150.5,53.5 149.5,53.5C 148.833,53.5 148.167,53.5 147.5,53.5C 147.047,52.5416 146.381,51.7083 145.5,51C 142.774,50.8184 140.107,50.3184 137.5,49.5C 138.901,48.4793 140.235,47.4793 141.5,46.5C 146.17,46.4889 150.503,45.4889 154.5,43.5 Z"/></g>
<g><path style="opacity:1" fill="#e25e41" d="M 182.5,41.5 C 179.35,42.7066 176.016,43.7066 172.5,44.5C 173.824,45.9347 175.49,46.9347 177.5,47.5C 177.099,49.4342 176.099,50.9342 174.5,52C 175.056,52.3826 175.389,52.8826 175.5,53.5C 172.609,54.4025 169.609,54.7359 166.5,54.5C 160.833,54.5 155.167,54.5 149.5,54.5C 149.5,54.1667 149.5,53.8333 149.5,53.5C 150.5,53.5 151.5,53.5 152.5,53.5C 154.5,53.5 156.5,53.5 158.5,53.5C 163.609,52.9545 168.609,51.7879 173.5,50C 173.957,49.586 174.291,49.086 174.5,48.5C 171.215,48.3019 169.548,46.6352 169.5,43.5C 165.833,43.5 162.167,43.5 158.5,43.5C 158.167,43.5 157.833,43.5 157.5,43.5C 157.5,43.1667 157.5,42.8333 157.5,42.5C 158.167,42.5 158.833,42.5 159.5,42.5C 167.187,42.5403 174.854,42.207 182.5,41.5 Z"/></g>
<g><path style="opacity:1" fill="#f4802b" d="M 141.5,46.5 C 140.235,47.4793 138.901,48.4793 137.5,49.5C 140.107,50.3184 142.774,50.8184 145.5,51C 146.381,51.7083 147.047,52.5416 147.5,53.5C 140.148,54.3747 132.815,54.3747 125.5,53.5C 126.833,52.8333 128.167,52.1667 129.5,51.5C 127.303,49.4816 124.636,48.315 121.5,48C 128.171,47.474 134.837,46.974 141.5,46.5 Z"/></g>
<g><path style="opacity:1" fill="#f27131" d="M 158.5,44.5 C 160.103,44.3118 161.437,44.8118 162.5,46C 162.201,47.3204 162.034,48.8204 162,50.5C 160.271,50.9743 159.105,51.9743 158.5,53.5C 156.5,53.5 154.5,53.5 152.5,53.5C 151.883,51.7708 150.883,50.2708 149.5,49C 150.793,48.51 152.127,48.3433 153.5,48.5C 153.5,47.5 153.5,46.5 153.5,45.5C 155.292,45.634 156.958,45.3007 158.5,44.5 Z"/></g>
<g><path style="opacity:1" fill="#e44f42" d="M 182.5,41.5 C 184.423,45.0293 185.089,49.0293 184.5,53.5C 181.5,53.5 178.5,53.5 175.5,53.5C 175.389,52.8826 175.056,52.3826 174.5,52C 176.099,50.9342 177.099,49.4342 177.5,47.5C 175.49,46.9347 173.824,45.9347 172.5,44.5C 176.016,43.7066 179.35,42.7066 182.5,41.5 Z"/></g>
<g><path style="opacity:1" fill="#ee8435" d="M 154.5,43.5 C 150.503,45.4889 146.17,46.4889 141.5,46.5C 134.837,46.974 128.171,47.474 121.5,48C 124.636,48.315 127.303,49.4816 129.5,51.5C 128.167,52.1667 126.833,52.8333 125.5,53.5C 132.815,54.3747 140.148,54.3747 147.5,53.5C 148.167,53.5 148.833,53.5 149.5,53.5C 149.5,53.8333 149.5,54.1667 149.5,54.5C 137.848,55.4685 126.181,55.6352 114.5,55C 113.556,52.2809 113.223,49.4475 113.5,46.5C 127.164,45.4558 140.83,44.4558 154.5,43.5 Z"/></g>
<g><path style="opacity:1" fill="#ef633b" d="M 158.5,44.5 C 158.5,44.1667 158.5,43.8333 158.5,43.5C 162.167,43.5 165.833,43.5 169.5,43.5C 169.548,46.6352 171.215,48.3019 174.5,48.5C 174.291,49.086 173.957,49.586 173.5,50C 168.609,51.7879 163.609,52.9545 158.5,53.5C 159.105,51.9743 160.271,50.9743 162,50.5C 162.034,48.8204 162.201,47.3204 162.5,46C 161.437,44.8118 160.103,44.3118 158.5,44.5 Z"/></g>
<g><path style="opacity:0.184" fill="#e1a97a" d="M 144.5,42.5 C 148.833,42.5 153.167,42.5 157.5,42.5C 157.5,42.8333 157.5,43.1667 157.5,43.5C 156.5,43.5 155.5,43.5 154.5,43.5C 140.83,44.4558 127.164,45.4558 113.5,46.5C 113.223,49.4475 113.556,52.2809 114.5,55C 126.181,55.6352 137.848,55.4685 149.5,54.5C 155.167,54.5 160.833,54.5 166.5,54.5C 166.5,54.8333 166.5,55.1667 166.5,55.5C 148.201,56.4609 129.868,56.7942 111.5,56.5C 111.241,52.7604 111.574,49.0938 112.5,45.5C 122.124,44.2139 131.791,43.5473 141.5,43.5C 142.391,42.8902 143.391,42.5569 144.5,42.5 Z"/></g>
<g><path style="opacity:0.2" fill="#e6c57a" d="M 150.5,57.5 C 150.5,57.8333 150.5,58.1667 150.5,58.5C 145.305,58.1795 140.305,58.5128 135.5,59.5C 131.167,59.5 126.833,59.5 122.5,59.5C 113.983,59.1739 105.65,59.5073 97.5,60.5C 96.5151,64.6344 96.1818,68.9677 96.5,73.5C 100.833,73.5 105.167,73.5 109.5,73.5C 118.167,73.5 126.833,73.5 135.5,73.5C 135.5,73.8333 135.5,74.1667 135.5,74.5C 122.167,74.5 108.833,74.5 95.5,74.5C 95.1953,69.2384 95.5286,64.0717 96.5,59C 114.502,58.4999 132.502,57.9999 150.5,57.5 Z"/></g>
<g><path style="opacity:1" fill="#e78d57" d="M 135.5,59.5 C 140.305,58.5128 145.305,58.1795 150.5,58.5C 152.833,58.5 155.167,58.5 157.5,58.5C 159.448,59.1312 161.281,60.1312 163,61.5C 163.215,64.8035 163.382,67.9701 163.5,71C 161.942,71.21 160.609,71.71 159.5,72.5C 156.5,72.5 153.5,72.5 150.5,72.5C 149.5,72.5 148.5,72.5 147.5,72.5C 147.5,71.8333 147.833,71.5 148.5,71.5C 152.167,71.8364 155.5,71.003 158.5,69C 157.212,66.292 155.045,64.792 152,64.5C 151.217,62.5665 151.717,61.0665 153.5,60C 151.527,59.5045 149.527,59.3379 147.5,59.5C 144.5,59.5 141.5,59.5 138.5,59.5C 137.5,59.5 136.5,59.5 135.5,59.5 Z"/></g>
<g><path style="opacity:0.637" fill="#cd9b97" d="M 153.5,73.5 C 152.209,73.7373 151.209,73.404 150.5,72.5C 153.5,72.5 156.5,72.5 159.5,72.5C 164.363,72.8195 169.03,72.4861 173.5,71.5C 174.167,71.5 174.833,71.5 175.5,71.5C 178.5,71.5 181.5,71.5 184.5,71.5C 184.5,67.1667 184.5,62.8333 184.5,58.5C 178.833,58.5 173.167,58.5 167.5,58.5C 164.167,58.5 160.833,58.5 157.5,58.5C 155.167,58.5 152.833,58.5 150.5,58.5C 150.5,58.1667 150.5,57.8333 150.5,57.5C 162.168,56.9626 173.835,56.796 185.5,57C 186.473,62.4066 186.807,67.9066 186.5,73.5C 175.5,73.5 164.5,73.5 153.5,73.5 Z"/></g>
<g><path style="opacity:1" fill="#f5b927" d="M 97.5,60.5 C 103.545,60.3032 109.545,60.6365 115.5,61.5C 115.327,64.1795 114.327,66.5128 112.5,68.5C 111.735,67.3881 110.735,66.7214 109.5,66.5C 108.778,66.0825 108.278,65.4158 108,64.5C 107.667,66.5 107.333,68.5 107,70.5C 106.586,70.9574 106.086,71.2907 105.5,71.5C 104.513,68.2317 104.18,64.8984 104.5,61.5C 102.208,61.2436 100.041,61.5769 98,62.5C 97.5017,65.8168 97.335,69.1501 97.5,72.5C 101.5,72.5 105.5,72.5 109.5,72.5C 109.5,72.8333 109.5,73.1667 109.5,73.5C 105.167,73.5 100.833,73.5 96.5,73.5C 96.1818,68.9677 96.5151,64.6344 97.5,60.5 Z"/></g>
<g><path style="opacity:1" fill="#ee914d" d="M 147.5,59.5 C 149.527,59.3379 151.527,59.5045 153.5,60C 151.717,61.0665 151.217,62.5665 152,64.5C 155.045,64.792 157.212,66.292 158.5,69C 155.5,71.003 152.167,71.8364 148.5,71.5C 149.127,69.3435 148.46,67.3435 146.5,65.5C 148.714,63.7622 149.047,61.7622 147.5,59.5 Z"/></g>
<g><path style="opacity:1" fill="#d97273" d="M 167.5,59.5 C 167.5,59.1667 167.5,58.8333 167.5,58.5C 173.167,58.5 178.833,58.5 184.5,58.5C 184.5,62.8333 184.5,67.1667 184.5,71.5C 181.5,71.5 178.5,71.5 175.5,71.5C 175.421,70.0695 175.754,68.7362 176.5,67.5C 172.511,64.9176 172.844,62.7509 177.5,61C 174.381,59.5949 171.048,59.0949 167.5,59.5 Z"/></g>
<g><path style="opacity:1" fill="#f9b225" d="M 115.5,61.5 C 118.247,61.1866 120.914,61.52 123.5,62.5C 122.833,63.1667 122.167,63.8333 121.5,64.5C 122.711,65.7202 122.711,66.8869 121.5,68C 124.106,68.4505 125.439,69.9505 125.5,72.5C 120.167,72.5 114.833,72.5 109.5,72.5C 109.935,70.7033 109.935,68.7033 109.5,66.5C 110.735,66.7214 111.735,67.3881 112.5,68.5C 114.327,66.5128 115.327,64.1795 115.5,61.5 Z"/></g>
<g><path style="opacity:1" fill="#f4aa35" d="M 97.5,60.5 C 105.65,59.5073 113.983,59.1739 122.5,59.5C 127.15,60.1807 131.816,61.3473 136.5,63C 136.167,63.3333 135.833,63.6667 135.5,64C 136.308,64.3076 136.975,64.8076 137.5,65.5C 136.907,67.3817 136.24,69.2151 135.5,71C 132.173,71.6103 128.839,72.1103 125.5,72.5C 125.439,69.9505 124.106,68.4505 121.5,68C 122.711,66.8869 122.711,65.7202 121.5,64.5C 122.167,63.8333 122.833,63.1667 123.5,62.5C 120.914,61.52 118.247,61.1866 115.5,61.5C 109.545,60.6365 103.545,60.3032 97.5,60.5 Z"/></g>
<g><path style="opacity:1" fill="#df796b" d="M 167.5,59.5 C 171.048,59.0949 174.381,59.5949 177.5,61C 172.844,62.7509 172.511,64.9176 176.5,67.5C 175.754,68.7362 175.421,70.0695 175.5,71.5C 174.833,71.5 174.167,71.5 173.5,71.5C 169.653,70.4761 168.653,68.1428 170.5,64.5C 168.703,63.3049 167.703,61.6382 167.5,59.5 Z"/></g>
<g><path style="opacity:1" fill="#efa343" d="M 122.5,59.5 C 126.833,59.5 131.167,59.5 135.5,59.5C 136.5,59.5 137.5,59.5 138.5,59.5C 140.423,60.7819 142.423,62.1152 144.5,63.5C 141.285,64.4478 140.952,65.7811 143.5,67.5C 142.975,68.1924 142.308,68.6924 141.5,69C 143.246,69.4709 144.913,70.1376 146.5,71C 137.19,71.8281 137.19,72.3281 146.5,72.5C 143.038,73.4816 139.371,73.815 135.5,73.5C 126.833,73.5 118.167,73.5 109.5,73.5C 109.5,73.1667 109.5,72.8333 109.5,72.5C 114.833,72.5 120.167,72.5 125.5,72.5C 128.839,72.1103 132.173,71.6103 135.5,71C 136.24,69.2151 136.907,67.3817 137.5,65.5C 136.975,64.8076 136.308,64.3076 135.5,64C 135.833,63.6667 136.167,63.3333 136.5,63C 131.816,61.3473 127.15,60.1807 122.5,59.5 Z"/></g>
<g><path style="opacity:1" fill="#ef9a47" d="M 138.5,59.5 C 141.5,59.5 144.5,59.5 147.5,59.5C 149.047,61.7622 148.714,63.7622 146.5,65.5C 148.46,67.3435 149.127,69.3435 148.5,71.5C 147.833,71.5 147.5,71.8333 147.5,72.5C 147.167,72.5 146.833,72.5 146.5,72.5C 137.19,72.3281 137.19,71.8281 146.5,71C 144.913,70.1376 143.246,69.4709 141.5,69C 142.308,68.6924 142.975,68.1924 143.5,67.5C 140.952,65.7811 141.285,64.4478 144.5,63.5C 142.423,62.1152 140.423,60.7819 138.5,59.5 Z"/></g>
<g><path style="opacity:1" fill="#e38263" d="M 157.5,58.5 C 160.833,58.5 164.167,58.5 167.5,58.5C 167.5,58.8333 167.5,59.1667 167.5,59.5C 167.703,61.6382 168.703,63.3049 170.5,64.5C 168.653,68.1428 169.653,70.4761 173.5,71.5C 169.03,72.4861 164.363,72.8195 159.5,72.5C 160.609,71.71 161.942,71.21 163.5,71C 163.382,67.9701 163.215,64.8035 163,61.5C 161.281,60.1312 159.448,59.1312 157.5,58.5 Z"/></g>
<g><path style="opacity:1" fill="#f7be18" d="M 109.5,66.5 C 109.935,68.7033 109.935,70.7033 109.5,72.5C 105.5,72.5 101.5,72.5 97.5,72.5C 97.335,69.1501 97.5017,65.8168 98,62.5C 100.041,61.5769 102.208,61.2436 104.5,61.5C 104.18,64.8984 104.513,68.2317 105.5,71.5C 106.086,71.2907 106.586,70.9574 107,70.5C 107.333,68.5 107.667,66.5 108,64.5C 108.278,65.4158 108.778,66.0825 109.5,66.5 Z"/></g>
<g><path style="opacity:0.035" fill="#f6cca5" d="M 146.5,72.5 C 146.833,72.5 147.167,72.5 147.5,72.5C 148.5,72.5 149.5,72.5 150.5,72.5C 151.209,73.404 152.209,73.7373 153.5,73.5C 147.69,74.4896 141.69,74.8229 135.5,74.5C 135.5,74.1667 135.5,73.8333 135.5,73.5C 139.371,73.815 143.038,73.4816 146.5,72.5 Z"/></g>
<g><path style="opacity:1" fill="#728fa4" d="M 168.5,77.5 C 165.833,78.1061 163.166,78.9395 160.5,80C 161.428,80.3879 162.095,81.0546 162.5,82C 163.333,85.4975 164.166,88.9975 165,92.5C 165.671,93.2524 166.504,93.5858 167.5,93.5C 168.167,93.5 168.5,93.8333 168.5,94.5C 166.143,94.6633 163.81,94.4966 161.5,94C 161.833,93.6667 162.167,93.3333 162.5,93C 159.698,90.6266 159.031,87.7932 160.5,84.5C 159.446,82.7988 158.446,81.1321 157.5,79.5C 160.684,77.5864 164.351,76.9197 168.5,77.5 Z"/></g>
<g><path style="opacity:1" fill="#8e9fa3" d="M 188.5,77.5 C 186.167,77.5 183.833,77.5 181.5,77.5C 177.167,77.5 172.833,77.5 168.5,77.5C 164.351,76.9197 160.684,77.5864 157.5,79.5C 150.836,80.6969 150.836,82.1969 157.5,84C 152.3,87.4234 152.3,90.7567 157.5,94C 156.944,94.3826 156.611,94.8826 156.5,95.5C 153.5,95.5 150.5,95.5 147.5,95.5C 148.398,94.8423 149.398,94.1757 150.5,93.5C 148.35,91.0775 148.017,88.4109 149.5,85.5C 148.518,82.9044 147.851,80.2377 147.5,77.5C 161.323,76.2947 174.989,76.2947 188.5,77.5 Z"/></g>
<g><path style="opacity:1" fill="#999f91" d="M 137.5,77.5 C 140.833,77.5 144.167,77.5 147.5,77.5C 147.851,80.2377 148.518,82.9044 149.5,85.5C 148.017,88.4109 148.35,91.0775 150.5,93.5C 149.398,94.1757 148.398,94.8423 147.5,95.5C 144.167,95.5 140.833,95.5 137.5,95.5C 137.5,95.1667 137.5,94.8333 137.5,94.5C 139.288,94.7852 140.955,94.4519 142.5,93.5C 143.646,90.7 143.646,87.8667 142.5,85C 142.439,83.2894 143.106,81.956 144.5,81C 142.418,79.1689 140.085,78.0022 137.5,77.5 Z"/></g>
<g><path style="opacity:1" fill="#8198a9" d="M 188.5,77.5 C 189.49,83.31 189.823,89.31 189.5,95.5C 178.5,95.5 167.5,95.5 156.5,95.5C 156.611,94.8826 156.944,94.3826 157.5,94C 152.3,90.7567 152.3,87.4234 157.5,84C 150.836,82.1969 150.836,80.6969 157.5,79.5C 158.446,81.1321 159.446,82.7988 160.5,84.5C 159.031,87.7932 159.698,90.6266 162.5,93C 162.167,93.3333 161.833,93.6667 161.5,94C 163.81,94.4966 166.143,94.6633 168.5,94.5C 175.167,94.5 181.833,94.5 188.5,94.5C 188.5,88.8333 188.5,83.1667 188.5,77.5 Z"/></g>
<g><path style="opacity:1" fill="#aca681" d="M 130.5,78.5 C 134.455,77.8625 137.122,79.3625 138.5,83C 138.817,86.6918 138.483,90.5251 137.5,94.5C 137.5,94.8333 137.5,95.1667 137.5,95.5C 132.5,95.5 127.5,95.5 122.5,95.5C 122.5,95.1667 122.5,94.8333 122.5,94.5C 126.611,94.4776 130.611,93.811 134.5,92.5C 135.857,89.473 135.524,86.6397 133.5,84C 134.167,83.3333 134.833,82.6667 135.5,82C 134.045,80.3743 132.378,79.2076 130.5,78.5 Z"/></g>
<g><path style="opacity:1" fill="#678ca9" d="M 168.5,77.5 C 172.833,77.5 177.167,77.5 181.5,77.5C 181.5,77.8333 181.5,78.1667 181.5,78.5C 178.833,78.5 176.167,78.5 173.5,78.5C 171.231,80.4253 168.897,82.4253 166.5,84.5C 166.897,87.2535 167.23,90.2535 167.5,93.5C 166.504,93.5858 165.671,93.2524 165,92.5C 164.166,88.9975 163.333,85.4975 162.5,82C 162.095,81.0546 161.428,80.3879 160.5,80C 163.166,78.9395 165.833,78.1061 168.5,77.5 Z"/></g>
<g><path style="opacity:1" fill="#a3a187" d="M 127.5,77.5 C 130.833,77.5 134.167,77.5 137.5,77.5C 140.085,78.0022 142.418,79.1689 144.5,81C 143.106,81.956 142.439,83.2894 142.5,85C 143.646,87.8667 143.646,90.7 142.5,93.5C 140.955,94.4519 139.288,94.7852 137.5,94.5C 138.483,90.5251 138.817,86.6918 138.5,83C 137.122,79.3625 134.455,77.8625 130.5,78.5C 129.209,78.7373 128.209,78.404 127.5,77.5 Z"/></g>
<g><path style="opacity:1" fill="#ebba36" d="M 85.5,78.5 C 93.5173,78.5012 101.517,78.8345 109.5,79.5C 109.5,79.8333 109.5,80.1667 109.5,80.5C 109.988,83.7107 109.321,86.544 107.5,89C 108.337,90.0113 108.67,91.1779 108.5,92.5C 100.862,93.3131 93.1956,93.6464 85.5,93.5C 84.1667,88.5 84.1667,83.5 85.5,78.5 Z"/></g>
<g><path style="opacity:1" fill="#fbbe19" d="M 94.5,79.5 C 94.9525,83.2622 94.9525,86.9289 94.5,90.5C 91.9135,91.48 89.2469,91.8134 86.5,91.5C 86.7373,90.209 86.404,89.209 85.5,88.5C 85.5,85.5 85.5,82.5 85.5,79.5C 88.5,79.5 91.5,79.5 94.5,79.5 Z"/></g>
<g><path style="opacity:1" fill="#e0b845" d="M 109.5,80.5 C 115.801,81.9755 116.134,84.4755 110.5,88C 111.167,88.6667 111.833,89.3333 112.5,90C 110.937,90.7589 109.937,91.9256 109.5,93.5C 109.5,93.8333 109.5,94.1667 109.5,94.5C 101.316,94.8257 93.3159,94.4924 85.5,93.5C 93.1956,93.6464 100.862,93.3131 108.5,92.5C 108.67,91.1779 108.337,90.0113 107.5,89C 109.321,86.544 109.988,83.7107 109.5,80.5 Z"/></g>
<g><path style="opacity:1" fill="#d8b44d" d="M 109.5,80.5 C 109.5,80.1667 109.5,79.8333 109.5,79.5C 114.145,78.4163 117.145,80.0829 118.5,84.5C 117.448,86.2234 117.448,87.8901 118.5,89.5C 116.514,92.8427 113.514,94.176 109.5,93.5C 109.937,91.9256 110.937,90.7589 112.5,90C 111.833,89.3333 111.167,88.6667 110.5,88C 116.134,84.4755 115.801,81.9755 109.5,80.5 Z"/></g>
<g><path style="opacity:1" fill="#d0b257" d="M 100.5,76.5 C 102.717,77.3686 105.05,77.702 107.5,77.5C 110.962,78.4816 114.629,78.815 118.5,78.5C 119.9,82.2997 121.567,85.9664 123.5,89.5C 122.37,90.6223 121.703,91.9557 121.5,93.5C 120.209,93.2627 119.209,93.596 118.5,94.5C 115.5,94.5 112.5,94.5 109.5,94.5C 109.5,94.1667 109.5,93.8333 109.5,93.5C 113.514,94.176 116.514,92.8427 118.5,89.5C 117.448,87.8901 117.448,86.2234 118.5,84.5C 117.145,80.0829 114.145,78.4163 109.5,79.5C 101.517,78.8345 93.5173,78.5012 85.5,78.5C 90.5,77.8333 95.5,77.1667 100.5,76.5 Z"/></g>
<g><path style="opacity:1" fill="#b8a973" d="M 107.5,77.5 C 114.167,77.5 120.833,77.5 127.5,77.5C 128.209,78.404 129.209,78.7373 130.5,78.5C 132.378,79.2076 134.045,80.3743 135.5,82C 134.833,82.6667 134.167,83.3333 133.5,84C 135.524,86.6397 135.857,89.473 134.5,92.5C 130.611,93.811 126.611,94.4776 122.5,94.5C 121.167,94.5 119.833,94.5 118.5,94.5C 119.209,93.596 120.209,93.2627 121.5,93.5C 124.044,93.8957 126.211,93.229 128,91.5C 131.479,82.7708 128.312,78.4375 118.5,78.5C 114.629,78.815 110.962,78.4816 107.5,77.5 Z"/></g>
<g><path style="opacity:0.494" fill="#e4d18e" d="M 100.5,76.5 C 95.5,77.1667 90.5,77.8333 85.5,78.5C 84.1667,83.5 84.1667,88.5 85.5,93.5C 93.3159,94.4924 101.316,94.8257 109.5,94.5C 112.5,94.5 115.5,94.5 118.5,94.5C 119.833,94.5 121.167,94.5 122.5,94.5C 122.5,94.8333 122.5,95.1667 122.5,95.5C 109.483,95.8325 96.4829,95.4991 83.5,94.5C 82.3822,89.2202 82.2155,83.8869 83,78.5C 83.5,78 84,77.5 84.5,77C 89.8229,76.5006 95.1563,76.334 100.5,76.5 Z"/></g>
<g><path style="opacity:1" fill="#c6ae62" d="M 118.5,78.5 C 128.312,78.4375 131.479,82.7708 128,91.5C 126.211,93.229 124.044,93.8957 121.5,93.5C 121.703,91.9557 122.37,90.6223 123.5,89.5C 121.567,85.9664 119.9,82.2997 118.5,78.5 Z"/></g>
<g><path style="opacity:1" fill="#f5bd26" d="M 94.5,79.5 C 96.7638,80.2186 99.0971,80.552 101.5,80.5C 101.793,84.4367 101.46,88.27 100.5,92C 95.5111,92.4993 90.5111,92.6659 85.5,92.5C 85.5,91.1667 85.5,89.8333 85.5,88.5C 86.404,89.209 86.7373,90.209 86.5,91.5C 89.2469,91.8134 91.9135,91.48 94.5,90.5C 94.9525,86.9289 94.9525,83.2622 94.5,79.5 Z"/></g>
<g><path style="opacity:1" fill="#5882a8" d="M 181.5,78.5 C 181.5,78.1667 181.5,77.8333 181.5,77.5C 183.833,77.5 186.167,77.5 188.5,77.5C 188.5,83.1667 188.5,88.8333 188.5,94.5C 181.833,94.5 175.167,94.5 168.5,94.5C 168.5,93.8333 168.167,93.5 167.5,93.5C 167.23,90.2535 166.897,87.2535 166.5,84.5C 168.897,82.4253 171.231,80.4253 173.5,78.5C 173.703,80.3904 173.037,81.8904 171.5,83C 173.841,82.4433 176.174,82.6099 178.5,83.5C 177.403,85.5346 175.737,86.8679 173.5,87.5C 175.104,89.1789 175.771,91.1789 175.5,93.5C 179.5,93.5 183.5,93.5 187.5,93.5C 187.802,90.9407 187.468,88.6074 186.5,86.5C 186.851,84.1305 187.018,81.7972 187,79.5C 185.301,78.5939 183.467,78.2606 181.5,78.5 Z"/></g>
<g><path style="opacity:1" fill="#447ab3" d="M 181.5,78.5 C 183.467,78.2606 185.301,78.5939 187,79.5C 187.018,81.7972 186.851,84.1305 186.5,86.5C 186.167,88.5 185.833,90.5 185.5,92.5C 184.127,92.6567 182.793,92.49 181.5,92C 181.833,91.6667 182.167,91.3333 182.5,91C 179.257,90.3473 178.423,88.8473 180,86.5C 180.333,86.8333 180.667,87.1667 181,87.5C 181.104,84.3366 181.271,81.3366 181.5,78.5 Z"/></g>
<g><path style="opacity:1" fill="#4c7eb0" d="M 173.5,78.5 C 176.167,78.5 178.833,78.5 181.5,78.5C 181.271,81.3366 181.104,84.3366 181,87.5C 180.667,87.1667 180.333,86.8333 180,86.5C 178.423,88.8473 179.257,90.3473 182.5,91C 182.167,91.3333 181.833,91.6667 181.5,92C 182.793,92.49 184.127,92.6567 185.5,92.5C 185.833,90.5 186.167,88.5 186.5,86.5C 187.468,88.6074 187.802,90.9407 187.5,93.5C 183.5,93.5 179.5,93.5 175.5,93.5C 175.771,91.1789 175.104,89.1789 173.5,87.5C 175.737,86.8679 177.403,85.5346 178.5,83.5C 176.174,82.6099 173.841,82.4433 171.5,83C 173.037,81.8904 173.703,80.3904 173.5,78.5 Z"/></g>
<g><path style="opacity:0.327" fill="#cb85af" d="M 141.5,99.5 C 141.5,99.8333 141.5,100.167 141.5,100.5C 132.167,100.5 122.833,100.5 113.5,100.5C 102.167,100.5 90.8333,100.5 79.5,100.5C 79.5,105.833 79.5,111.167 79.5,116.5C 79.4326,117.959 79.7659,119.292 80.5,120.5C 79.0047,120.585 78.0047,119.919 77.5,118.5C 78.4596,112.227 78.7929,105.893 78.5,99.5C 99.5,99.5 120.5,99.5 141.5,99.5 Z"/></g>
<g><path style="opacity:0.212" fill="#8c86a2" d="M 141.5,100.5 C 141.5,100.167 141.5,99.8333 141.5,99.5C 159.167,99.5 176.833,99.5 194.5,99.5C 194.5,100.833 194.5,102.167 194.5,103.5C 193.596,102.791 193.263,101.791 193.5,100.5C 184.167,100.5 174.833,100.5 165.5,100.5C 157.5,100.5 149.5,100.5 141.5,100.5 Z"/></g>
<g><path style="opacity:1" fill="#ca3e8e" d="M 113.5,100.5 C 113.5,100.833 113.5,101.167 113.5,101.5C 115.813,102.997 117.147,105.163 117.5,108C 116.909,111.527 116.242,115.027 115.5,118.5C 112.615,118.194 109.948,118.527 107.5,119.5C 98.6506,119.826 89.9839,119.493 81.5,118.5C 84.8333,118.5 88.1667,118.5 91.5,118.5C 96.263,118.774 100.93,118.441 105.5,117.5C 107.492,117.672 109.158,117.005 110.5,115.5C 111.942,111.733 113.609,108.566 115.5,106C 112.918,105.104 110.584,103.771 108.5,102C 106.866,101.506 105.199,101.34 103.5,101.5C 100.833,101.5 98.1667,101.5 95.5,101.5C 93.5,101.5 91.5,101.5 89.5,101.5C 86.5,101.5 83.5,101.5 80.5,101.5C 80.5,106.5 80.5,111.5 80.5,116.5C 80.1667,116.5 79.8333,116.5 79.5,116.5C 79.5,111.167 79.5,105.833 79.5,100.5C 90.8333,100.5 102.167,100.5 113.5,100.5 Z"/></g>
<g><path style="opacity:1" fill="#e8388b" d="M 89.5,101.5 C 90.1667,102.167 90.8333,102.833 91.5,103.5C 91.1742,105.661 90.1742,107.494 88.5,109C 89.5536,110.388 89.7203,111.888 89,113.5C 86.1246,114.669 83.2913,115.669 80.5,116.5C 80.5,111.5 80.5,106.5 80.5,101.5C 83.5,101.5 86.5,101.5 89.5,101.5 Z"/></g>
<g><path style="opacity:1" fill="#7a4c97" d="M 153.5,102.5 C 156.226,102.264 158.559,103.097 160.5,105C 160.167,105.333 159.833,105.667 159.5,106C 160.632,108.434 161.632,110.934 162.5,113.5C 161.802,114.863 161.802,116.029 162.5,117C 161.584,117.278 160.918,117.778 160.5,118.5C 156.833,118.5 153.167,118.5 149.5,118.5C 149.5,118.167 149.5,117.833 149.5,117.5C 155.39,118.294 156.723,116.294 153.5,111.5C 154.724,108.505 154.724,105.505 153.5,102.5 Z"/></g>
<g><path style="opacity:1" fill="#e1378f" d="M 89.5,101.5 C 91.5,101.5 93.5,101.5 95.5,101.5C 97.6737,103.081 100.007,104.581 102.5,106C 99.6981,109.172 99.0314,112.672 100.5,116.5C 98.283,117.369 95.9496,117.702 93.5,117.5C 93.6107,116.883 93.944,116.383 94.5,116C 92.7749,116.409 91.1082,116.242 89.5,115.5C 90.6888,114.571 92.0222,114.238 93.5,114.5C 93.2436,112.208 93.5769,110.041 94.5,108C 94.0853,105.974 93.0853,104.474 91.5,103.5C 90.8333,102.833 90.1667,102.167 89.5,101.5 Z"/></g>
<g><path style="opacity:1" fill="#d13a92" d="M 103.5,102.5 C 103.5,102.167 103.5,101.833 103.5,101.5C 105.199,101.34 106.866,101.506 108.5,102C 110.584,103.771 112.918,105.104 115.5,106C 113.609,108.566 111.942,111.733 110.5,115.5C 109.158,117.005 107.492,117.672 105.5,117.5C 107.154,114.237 108.82,110.903 110.5,107.5C 108.555,105.295 106.222,103.628 103.5,102.5 Z"/></g>
<g><path style="opacity:1" fill="#a94297" d="M 132.5,101.5 C 134.751,103.928 137.418,105.928 140.5,107.5C 139.372,108.262 138.205,108.929 137,109.5C 136.667,112.167 136.333,114.833 136,117.5C 133.959,118.423 131.792,118.756 129.5,118.5C 129.937,116.926 130.937,115.759 132.5,115C 131.833,113.667 131.167,112.333 130.5,111C 133.84,107.905 133.84,105.239 130.5,103C 131.416,102.722 132.082,102.222 132.5,101.5 Z"/></g>
<g><path style="opacity:1" fill="#724e96" d="M 141.5,100.5 C 149.5,100.5 157.5,100.5 165.5,100.5C 165.842,101.338 166.508,101.672 167.5,101.5C 167.143,107.377 166.143,113.044 164.5,118.5C 164.167,118.5 163.833,118.5 163.5,118.5C 162.5,118.5 161.5,118.5 160.5,118.5C 160.918,117.778 161.584,117.278 162.5,117C 161.802,116.029 161.802,114.863 162.5,113.5C 161.632,110.934 160.632,108.434 159.5,106C 159.833,105.667 160.167,105.333 160.5,105C 158.559,103.097 156.226,102.264 153.5,102.5C 151.283,101.631 148.95,101.298 146.5,101.5C 145.167,101.5 143.833,101.5 142.5,101.5C 141.833,101.5 141.5,101.167 141.5,100.5 Z"/></g>
<g><path style="opacity:1" fill="#564f97" d="M 173.5,117.5 C 172.326,113.153 172.326,108.819 173.5,104.5C 176.572,103.194 179.239,103.194 181.5,104.5C 181.003,108.175 180.003,111.675 178.5,115C 179.167,115.667 179.833,116.333 180.5,117C 178.19,117.497 175.857,117.663 173.5,117.5 Z"/></g>
<g><path style="opacity:1" fill="#465096" d="M 184.5,103.5 C 186.144,103.286 187.644,103.62 189,104.5C 189.768,108.92 189.602,113.253 188.5,117.5C 186.5,117.5 184.5,117.5 182.5,117.5C 182.352,112.681 183.018,108.015 184.5,103.5 Z"/></g>
<g><path style="opacity:1" fill="#b54197" d="M 119.5,101.5 C 123.833,101.5 128.167,101.5 132.5,101.5C 132.082,102.222 131.416,102.722 130.5,103C 133.84,105.239 133.84,107.905 130.5,111C 131.167,112.333 131.833,113.667 132.5,115C 130.937,115.759 129.937,116.926 129.5,118.5C 128.167,118.5 126.833,118.5 125.5,118.5C 125.836,114.48 126.17,110.647 126.5,107C 124.195,105.077 121.862,103.244 119.5,101.5 Z"/></g>
<g><path style="opacity:1" fill="#a24694" d="M 113.5,101.5 C 113.5,101.167 113.5,100.833 113.5,100.5C 122.833,100.5 132.167,100.5 141.5,100.5C 141.5,101.167 141.833,101.5 142.5,101.5C 143.953,102.825 143.619,103.658 141.5,104C 142.656,106.44 142.656,108.94 141.5,111.5C 141.529,113.029 142.196,114.196 143.5,115C 142.177,115.816 141.511,116.983 141.5,118.5C 141.5,118.833 141.5,119.167 141.5,119.5C 133.167,119.5 124.833,119.5 116.5,119.5C 119.287,118.523 122.287,118.19 125.5,118.5C 126.833,118.5 128.167,118.5 129.5,118.5C 131.792,118.756 133.959,118.423 136,117.5C 136.333,114.833 136.667,112.167 137,109.5C 138.205,108.929 139.372,108.262 140.5,107.5C 137.418,105.928 134.751,103.928 132.5,101.5C 128.167,101.5 123.833,101.5 119.5,101.5C 117.5,101.5 115.5,101.5 113.5,101.5 Z"/></g>
<g><path style="opacity:1" fill="#644e96" d="M 167.5,101.5 C 169.167,101.5 170.833,101.5 172.5,101.5C 173.11,102.391 173.443,103.391 173.5,104.5C 172.326,108.819 172.326,113.153 173.5,117.5C 172.833,117.5 172.5,117.833 172.5,118.5C 169.833,118.5 167.167,118.5 164.5,118.5C 166.143,113.044 167.143,107.377 167.5,101.5 Z"/></g>
<g><path style="opacity:1" fill="#515096" d="M 172.5,101.5 C 174.833,101.5 177.167,101.5 179.5,101.5C 180.93,102.537 182.597,103.204 184.5,103.5C 183.018,108.015 182.352,112.681 182.5,117.5C 179.375,118.479 176.042,118.813 172.5,118.5C 172.5,117.833 172.833,117.5 173.5,117.5C 175.857,117.663 178.19,117.497 180.5,117C 179.833,116.333 179.167,115.667 178.5,115C 180.003,111.675 181.003,108.175 181.5,104.5C 179.239,103.194 176.572,103.194 173.5,104.5C 173.443,103.391 173.11,102.391 172.5,101.5 Z"/></g>
<g><path style="opacity:1" fill="#db3890" d="M 95.5,101.5 C 98.1667,101.5 100.833,101.5 103.5,101.5C 103.5,101.833 103.5,102.167 103.5,102.5C 104.567,104.741 106.234,106.574 108.5,108C 106.221,108.473 104.221,109.473 102.5,111C 103.079,112.908 103.079,114.575 102.5,116C 101.906,116.464 101.239,116.631 100.5,116.5C 99.0314,112.672 99.6981,109.172 102.5,106C 100.007,104.581 97.6737,103.081 95.5,101.5 Z"/></g>
<g><path style="opacity:1" fill="#e4358d" d="M 91.5,103.5 C 93.0853,104.474 94.0853,105.974 94.5,108C 93.5769,110.041 93.2436,112.208 93.5,114.5C 92.0222,114.238 90.6888,114.571 89.5,115.5C 91.1082,116.242 92.7749,116.409 94.5,116C 93.944,116.383 93.6107,116.883 93.5,117.5C 92.5084,117.328 91.8417,117.662 91.5,118.5C 88.1667,118.5 84.8333,118.5 81.5,118.5C 81.1667,117.833 80.8333,117.167 80.5,116.5C 83.2913,115.669 86.1246,114.669 89,113.5C 89.7203,111.888 89.5536,110.388 88.5,109C 90.1742,107.494 91.1742,105.661 91.5,103.5 Z"/></g>
<g><path style="opacity:1" fill="#bf3e93" d="M 113.5,101.5 C 115.5,101.5 117.5,101.5 119.5,101.5C 121.862,103.244 124.195,105.077 126.5,107C 126.17,110.647 125.836,114.48 125.5,118.5C 122.287,118.19 119.287,118.523 116.5,119.5C 113.5,119.5 110.5,119.5 107.5,119.5C 109.948,118.527 112.615,118.194 115.5,118.5C 116.242,115.027 116.909,111.527 117.5,108C 117.147,105.163 115.813,102.997 113.5,101.5 Z"/></g>
<g><path style="opacity:1" fill="#884a98" d="M 146.5,101.5 C 148.95,101.298 151.283,101.631 153.5,102.5C 154.724,105.505 154.724,108.505 153.5,111.5C 156.723,116.294 155.39,118.294 149.5,117.5C 146.914,113.661 146.914,109.828 149.5,106C 147.859,104.871 146.859,103.371 146.5,101.5 Z"/></g>
<g><path style="opacity:0.996" fill="#4b4e7f" d="M 165.5,100.5 C 174.833,100.5 184.167,100.5 193.5,100.5C 193.263,101.791 193.596,102.791 194.5,103.5C 195.037,109.135 194.37,114.468 192.5,119.5C 189.5,119.5 186.5,119.5 183.5,119.5C 176.646,119.824 169.979,119.491 163.5,118.5C 163.833,118.5 164.167,118.5 164.5,118.5C 167.167,118.5 169.833,118.5 172.5,118.5C 176.042,118.813 179.375,118.479 182.5,117.5C 184.5,117.5 186.5,117.5 188.5,117.5C 189.822,117.67 190.989,117.337 192,116.5C 192.499,111.511 192.666,106.511 192.5,101.5C 188.167,101.5 183.833,101.5 179.5,101.5C 177.167,101.5 174.833,101.5 172.5,101.5C 170.833,101.5 169.167,101.5 167.5,101.5C 166.508,101.672 165.842,101.338 165.5,100.5 Z"/></g>
<g><path style="opacity:1" fill="#405193" d="M 179.5,101.5 C 183.833,101.5 188.167,101.5 192.5,101.5C 192.666,106.511 192.499,111.511 192,116.5C 190.989,117.337 189.822,117.67 188.5,117.5C 189.602,113.253 189.768,108.92 189,104.5C 187.644,103.62 186.144,103.286 184.5,103.5C 182.597,103.204 180.93,102.537 179.5,101.5 Z"/></g>
<g><path style="opacity:1" fill="#934797" d="M 142.5,101.5 C 143.833,101.5 145.167,101.5 146.5,101.5C 146.859,103.371 147.859,104.871 149.5,106C 146.914,109.828 146.914,113.661 149.5,117.5C 149.5,117.833 149.5,118.167 149.5,118.5C 146.833,118.5 144.167,118.5 141.5,118.5C 141.511,116.983 142.177,115.816 143.5,115C 142.196,114.196 141.529,113.029 141.5,111.5C 142.656,108.94 142.656,106.44 141.5,104C 143.619,103.658 143.953,102.825 142.5,101.5 Z"/></g>
<g><path style="opacity:0.045" fill="#d0d4ef" d="M 194.5,103.5 C 195.488,108.64 195.821,113.974 195.5,119.5C 194.5,119.5 193.5,119.5 192.5,119.5C 194.37,114.468 195.037,109.135 194.5,103.5 Z"/></g>
<g><path style="opacity:1" fill="#d63790" d="M 103.5,102.5 C 106.222,103.628 108.555,105.295 110.5,107.5C 108.82,110.903 107.154,114.237 105.5,117.5C 100.93,118.441 96.263,118.774 91.5,118.5C 91.8417,117.662 92.5084,117.328 93.5,117.5C 95.9496,117.702 98.283,117.369 100.5,116.5C 101.239,116.631 101.906,116.464 102.5,116C 103.079,114.575 103.079,112.908 102.5,111C 104.221,109.473 106.221,108.473 108.5,108C 106.234,106.574 104.567,104.741 103.5,102.5 Z"/></g>
<g><path style="opacity:0.98" fill="#8b6e98" d="M 141.5,118.5 C 144.167,118.5 146.833,118.5 149.5,118.5C 153.167,118.5 156.833,118.5 160.5,118.5C 161.5,118.5 162.5,118.5 163.5,118.5C 169.979,119.491 176.646,119.824 183.5,119.5C 169.677,120.496 155.677,120.829 141.5,120.5C 141.5,120.167 141.5,119.833 141.5,119.5C 141.5,119.167 141.5,118.833 141.5,118.5 Z"/></g>
<g><path style="opacity:0.487" fill="#c483ad" d="M 79.5,116.5 C 79.8333,116.5 80.1667,116.5 80.5,116.5C 80.8333,117.167 81.1667,117.833 81.5,118.5C 89.9839,119.493 98.6506,119.826 107.5,119.5C 110.5,119.5 113.5,119.5 116.5,119.5C 124.833,119.5 133.167,119.5 141.5,119.5C 141.5,119.833 141.5,120.167 141.5,120.5C 121.264,121.825 100.931,121.825 80.5,120.5C 79.7659,119.292 79.4326,117.959 79.5,116.5 Z"/></g>
<g><path style="opacity:0.051" fill="#848e9d" d="M 66.5,135.5 C 72.2333,134.202 77.8999,134.535 83.5,136.5C 77.8477,135.968 72.181,135.635 66.5,135.5 Z"/></g>
<g><path style="opacity:0.082" fill="#d0d2dd" d="M 240.5,138.5 C 240.611,137.883 240.944,137.383 241.5,137C 236.648,136.185 231.981,136.352 227.5,137.5C 226.957,137.44 226.624,137.107 226.5,136.5C 231.792,135.505 237.125,135.172 242.5,135.5C 242.715,137.179 242.048,138.179 240.5,138.5 Z"/></g>
<g><path style="opacity:1" fill="#263152" d="M 62.5,141.5 C 58.2265,143.645 54.2265,146.312 50.5,149.5C 50.5858,148.504 50.2524,147.671 49.5,147C 52.8203,146.232 54.1536,144.398 53.5,141.5C 52.2638,142.246 50.9305,142.579 49.5,142.5C 50.8333,141.167 52.1667,139.833 53.5,138.5C 54.209,137.596 55.209,137.263 56.5,137.5C 58.7345,137.62 60.9011,137.287 63,136.5C 65.464,137.161 67.964,137.661 70.5,138C 67.5989,138.875 64.9323,140.042 62.5,141.5 Z"/></g>
<g><path style="opacity:1" fill="#283253" d="M 66.5,135.5 C 72.181,135.635 77.8477,135.968 83.5,136.5C 83.8333,136.5 84.1667,136.5 84.5,136.5C 86.4385,138.163 88.7718,138.829 91.5,138.5C 92.5676,139.434 93.901,139.768 95.5,139.5C 95.8174,142.572 95.4841,145.572 94.5,148.5C 93.5713,147.311 93.238,145.978 93.5,144.5C 90.7628,144.599 88.0961,144.265 85.5,143.5C 78.0443,141.693 70.3777,141.027 62.5,141.5C 64.9323,140.042 67.5989,138.875 70.5,138C 67.964,137.661 65.464,137.161 63,136.5C 60.9011,137.287 58.7345,137.62 56.5,137.5C 59.5072,135.825 62.8405,135.159 66.5,135.5 Z"/></g>
<g><path style="opacity:0.686" fill="#6b7683" d="M 84.5,136.5 C 87.0673,136.721 89.4006,137.388 91.5,138.5C 88.7718,138.829 86.4385,138.163 84.5,136.5 Z"/></g>
<g><path style="opacity:1" fill="#4f576f" d="M 197.5,144.5 C 197.5,145.167 197.5,145.833 197.5,146.5C 196.685,145.571 195.852,144.571 195,143.5C 194.333,144.833 193.667,144.833 193,143.5C 192.855,140.509 191.355,138.842 188.5,138.5C 186.167,138.5 183.833,138.5 181.5,138.5C 181.5,139.833 181.5,141.167 181.5,142.5C 180.526,160.787 180.193,179.12 180.5,197.5C 180.167,197.5 179.833,197.5 179.5,197.5C 179.667,179.164 179.5,160.83 179,142.5C 177.87,140.067 176.704,137.734 175.5,135.5C 180.511,135.334 185.511,135.501 190.5,136C 193.045,138.707 195.379,141.54 197.5,144.5 Z"/></g>
<g><path style="opacity:0.999" fill="#2a304d" d="M 139.5,137.5 C 142.267,137.87 144.267,139.204 145.5,141.5C 145.876,144.627 145.876,147.627 145.5,150.5C 144.713,149.758 144.047,148.925 143.5,148C 144.451,147.282 144.617,146.449 144,145.5C 143.23,146.598 142.397,146.598 141.5,145.5C 139.475,143.804 137.475,142.137 135.5,140.5C 133.49,139.307 131.324,139.307 129,140.5C 127.941,140.37 127.108,139.87 126.5,139C 130.73,137.71 135.064,137.21 139.5,137.5 Z"/></g>
<g><path style="opacity:1" fill="#4b546a" d="M 139.5,137.5 C 135.064,137.21 130.73,137.71 126.5,139C 127.108,139.87 127.941,140.37 129,140.5C 131.324,139.307 133.49,139.307 135.5,140.5C 126.088,140.66 122.421,145.326 124.5,154.5C 123.013,151.454 122.013,148.121 121.5,144.5C 119.156,146.194 118.156,148.528 118.5,151.5C 118.753,153.858 119.086,156.192 119.5,158.5C 115.364,152.715 115.698,147.049 120.5,141.5C 126.209,136.718 132.543,135.385 139.5,137.5 Z"/></g>
<g><path style="opacity:0.651" fill="#4a5065" d="M 91.5,138.5 C 93.1667,138.5 94.8333,138.5 96.5,138.5C 96.5,143.5 96.5,148.5 96.5,153.5C 95.325,153.719 94.325,153.386 93.5,152.5C 91.4956,148.834 88.8289,145.834 85.5,143.5C 88.0961,144.265 90.7628,144.599 93.5,144.5C 93.238,145.978 93.5713,147.311 94.5,148.5C 95.4841,145.572 95.8174,142.572 95.5,139.5C 93.901,139.768 92.5676,139.434 91.5,138.5 Z"/></g>
<g><path style="opacity:0.318" fill="#9fa3ae" d="M 197.5,144.5 C 198.906,144.973 199.573,145.973 199.5,147.5C 198.833,147.167 198.167,146.833 197.5,146.5C 197.5,145.833 197.5,145.167 197.5,144.5 Z"/></g>
<g><path style="opacity:0.592" fill="#7a8598" d="M 45.5,142.5 C 43.7607,145.243 41.4274,147.243 38.5,148.5C 40.2393,145.757 42.5726,143.757 45.5,142.5 Z"/></g>
<g><path style="opacity:1" fill="#142551" d="M 188.5,138.5 C 188.249,140.17 187.582,141.67 186.5,143C 187.136,145.394 187.136,147.894 186.5,150.5C 186.443,151.609 186.11,152.609 185.5,153.5C 184.849,154.091 184.182,154.757 183.5,155.5C 182.833,151.018 182.166,146.684 181.5,142.5C 181.5,141.167 181.5,139.833 181.5,138.5C 183.833,138.5 186.167,138.5 188.5,138.5 Z"/></g>
<g><path style="opacity:0.953" fill="#606574" d="M 145.5,141.5 C 148.609,145.053 149.109,149.053 147,153.5C 146.311,154.357 145.478,155.023 144.5,155.5C 143.188,152.251 142.188,148.918 141.5,145.5C 142.397,146.598 143.23,146.598 144,145.5C 144.617,146.449 144.451,147.282 143.5,148C 144.047,148.925 144.713,149.758 145.5,150.5C 145.876,147.627 145.876,144.627 145.5,141.5 Z"/></g>
<g><path style="opacity:1" fill="#1e2a4e" d="M 188.5,138.5 C 191.355,138.842 192.855,140.509 193,143.5C 193.667,144.833 194.333,144.833 195,143.5C 195.852,144.571 196.685,145.571 197.5,146.5C 198.167,146.833 198.833,147.167 199.5,147.5C 202.295,149.751 204.628,152.418 206.5,155.5C 207.08,157.749 208.413,159.415 210.5,160.5C 210.833,161.833 211.167,163.167 211.5,164.5C 210.078,163.075 208.411,162.075 206.5,161.5C 206.201,157.719 204.201,155.552 200.5,155C 196.559,150.221 195.726,150.721 198,156.5C 199.813,158.761 201.313,161.095 202.5,163.5C 201.041,163.567 199.708,163.234 198.5,162.5C 196.413,161.415 195.08,159.749 194.5,157.5C 194.144,155.81 193.144,154.81 191.5,154.5C 190.5,154.167 189.833,153.5 189.5,152.5C 189.5,151.167 188.833,150.5 187.5,150.5C 187.167,150.5 186.833,150.5 186.5,150.5C 187.136,147.894 187.136,145.394 186.5,143C 187.582,141.67 188.249,140.17 188.5,138.5 Z"/></g>
<g><path style="opacity:1" fill="#14264f" d="M 50.5,149.5 C 48.5201,150.484 46.8534,151.817 45.5,153.5C 44.5116,154.795 43.5116,156.128 42.5,157.5C 41.2264,156.811 41.2264,155.977 42.5,155C 41.0406,155.355 39.7072,155.189 38.5,154.5C 38.7713,152.688 39.438,151.022 40.5,149.5C 43.3064,146.843 46.3064,144.51 49.5,142.5C 50.9305,142.579 52.2638,142.246 53.5,141.5C 54.1536,144.398 52.8203,146.232 49.5,147C 50.2524,147.671 50.5858,148.504 50.5,149.5 Z"/></g>
<g><path style="opacity:0.988" fill="#5c647a" d="M 50.5,149.5 C 48.8139,152.872 47.1473,156.205 45.5,159.5C 45.5,157.5 45.5,155.5 45.5,153.5C 46.8534,151.817 48.5201,150.484 50.5,149.5 Z"/></g>
<g><path style="opacity:1" fill="#1e2a4c" d="M 124.5,154.5 C 125.906,154.973 126.573,155.973 126.5,157.5C 127.419,160.089 129.086,162.089 131.5,163.5C 133.167,164.5 134.5,165.833 135.5,167.5C 129.924,165.875 126.257,162.208 124.5,156.5C 124.167,157.333 123.833,158.167 123.5,159C 123.954,160.939 124.621,162.772 125.5,164.5C 124.609,163.89 123.609,163.557 122.5,163.5C 122.446,161.368 121.446,160.035 119.5,159.5C 119.5,159.167 119.5,158.833 119.5,158.5C 119.086,156.192 118.753,153.858 118.5,151.5C 118.156,148.528 119.156,146.194 121.5,144.5C 122.013,148.121 123.013,151.454 124.5,154.5 Z"/></g>
<g><path style="opacity:1" fill="#152446" d="M 181.5,142.5 C 182.166,146.684 182.833,151.018 183.5,155.5C 184.182,154.757 184.849,154.091 185.5,153.5C 185.5,156.5 185.5,159.5 185.5,162.5C 184.732,161.737 184.232,160.737 184,159.5C 182.806,161.623 182.14,163.957 182,166.5C 181.5,176.828 181.334,187.161 181.5,197.5C 181.167,197.5 180.833,197.5 180.5,197.5C 180.193,179.12 180.526,160.787 181.5,142.5 Z"/></g>
<g><path style="opacity:0.224" fill="#8f95a1" d="M 191.5,154.5 C 193.144,154.81 194.144,155.81 194.5,157.5C 192.856,157.19 191.856,156.19 191.5,154.5 Z"/></g>
<g><path style="opacity:0.486" fill="#909aa8" d="M 206.5,155.5 C 208.587,156.585 209.92,158.251 210.5,160.5C 208.413,159.415 207.08,157.749 206.5,155.5 Z"/></g>
<g><path style="opacity:0.565" fill="#939eb1" d="M 126.5,157.5 C 128.914,158.911 130.581,160.911 131.5,163.5C 129.086,162.089 127.419,160.089 126.5,157.5 Z"/></g>
<g><path style="opacity:1" fill="#152550" d="M 206.5,161.5 C 205.972,162.721 205.305,163.887 204.5,165C 206.758,166.753 208.425,168.919 209.5,171.5C 207.717,170.886 206.384,169.72 205.5,168C 204.552,167.517 203.552,167.351 202.5,167.5C 201.595,166.036 201.595,164.702 202.5,163.5C 201.313,161.095 199.813,158.761 198,156.5C 195.726,150.721 196.559,150.221 200.5,155C 204.201,155.552 206.201,157.719 206.5,161.5 Z"/></g>
<g><path style="opacity:0.145" fill="#848c9c" d="M 229.5,139.5 C 230.826,154.005 230.826,168.672 229.5,183.5C 228.702,183.043 228.369,182.376 228.5,181.5C 229.496,167.677 229.829,153.677 229.5,139.5 Z"/></g>
<g><path style="opacity:0.956" fill="#27314b" d="M 240.5,138.5 C 240.539,139.756 240.039,140.756 239,141.5C 238.5,152.161 238.333,162.828 238.5,173.5C 237.509,179.979 237.176,186.646 237.5,193.5C 236.507,184.682 236.173,175.682 236.5,166.5C 236.5,166.167 236.5,165.833 236.5,165.5C 236.721,158.47 236.387,151.47 235.5,144.5C 235.669,142.161 236.336,139.994 237.5,138C 235.527,137.505 233.527,137.338 231.5,137.5C 231.5,153.5 231.5,169.5 231.5,185.5C 229.805,186.826 228.472,186.493 227.5,184.5C 227.5,183.167 227.5,181.833 227.5,180.5C 228.167,180.5 228.5,180.833 228.5,181.5C 228.369,182.376 228.702,183.043 229.5,183.5C 230.826,168.672 230.826,154.005 229.5,139.5C 228.5,139.167 227.833,138.5 227.5,137.5C 231.981,136.352 236.648,136.185 241.5,137C 240.944,137.383 240.611,137.883 240.5,138.5 Z"/></g>
<g><path style="opacity:1" fill="#16254c" d="M 236.5,165.5 C 235.673,160.015 235.173,154.348 235,148.5C 234.333,145.833 233.667,145.833 233,148.5C 232.18,160.076 232.346,171.576 233.5,183C 232.934,183.995 232.267,184.828 231.5,185.5C 231.5,169.5 231.5,153.5 231.5,137.5C 233.527,137.338 235.527,137.505 237.5,138C 236.336,139.994 235.669,142.161 235.5,144.5C 236.387,151.47 236.721,158.47 236.5,165.5 Z"/></g>
<g><path style="opacity:1" fill="#152651" d="M 38.5,154.5 C 39.7072,155.189 41.0406,155.355 42.5,155C 41.2264,155.977 41.2264,156.811 42.5,157.5C 41.9862,159.366 41.3195,161.2 40.5,163C 40.3507,170.153 41.0174,177.319 42.5,184.5C 43.9587,184.433 45.2921,184.766 46.5,185.5C 47.4511,186.919 47.7845,188.585 47.5,190.5C 47.0269,191.906 46.0269,192.573 44.5,192.5C 42.9582,191.699 41.2915,191.366 39.5,191.5C 36.9589,184.814 35.2923,177.814 34.5,170.5C 34.3599,165.949 34.8599,161.282 36,156.5C 36.7083,155.619 37.5416,154.953 38.5,154.5 Z"/></g>
<g><path style="opacity:0.298" fill="#8d929c" d="M 119.5,159.5 C 121.446,160.035 122.446,161.368 122.5,163.5C 121.026,162.564 120.026,161.23 119.5,159.5 Z"/></g>
<g><path style="opacity:0.776" fill="#73798e" d="M 34.5,156.5 C 33.9927,160.083 32.9927,163.417 31.5,166.5C 31.804,163.478 32.304,160.478 33,157.5C 33.3826,156.944 33.8826,156.611 34.5,156.5 Z"/></g>
<g><path style="opacity:1" fill="#646b7c" d="M 198.5,162.5 C 199.708,163.234 201.041,163.567 202.5,163.5C 201.595,164.702 201.595,166.036 202.5,167.5C 200.793,166.127 199.46,164.461 198.5,162.5 Z"/></g>
<g><path style="opacity:1" fill="#132553" d="M 206.5,161.5 C 208.411,162.075 210.078,163.075 211.5,164.5C 212.975,166.007 214.309,167.673 215.5,169.5C 216.434,171.239 216.434,172.905 215.5,174.5C 213.466,173.441 211.466,172.441 209.5,171.5C 208.425,168.919 206.758,166.753 204.5,165C 205.305,163.887 205.972,162.721 206.5,161.5 Z"/></g>
<g><path style="opacity:1" fill="#152553" d="M 236.5,165.5 C 236.5,165.833 236.5,166.167 236.5,166.5C 235.511,171.975 235.178,177.642 235.5,183.5C 234.034,184.347 233.2,185.68 233,187.5C 232.283,186.956 231.783,186.289 231.5,185.5C 232.267,184.828 232.934,183.995 233.5,183C 232.346,171.576 232.18,160.076 233,148.5C 233.667,145.833 234.333,145.833 235,148.5C 235.173,154.348 235.673,160.015 236.5,165.5 Z"/></g>
<g><path style="opacity:0.968" fill="#424b64" d="M 122.5,163.5 C 123.609,163.557 124.609,163.89 125.5,164.5C 125.833,165.5 126.5,166.167 127.5,166.5C 127.218,167.778 126.551,168.778 125.5,169.5C 121.026,172.471 118.026,176.471 116.5,181.5C 116.5,180.5 116.5,179.5 116.5,178.5C 117.219,176.236 117.552,173.903 117.5,171.5C 116.5,171.5 115.5,171.5 114.5,171.5C 114.369,170.624 114.702,169.957 115.5,169.5C 118.3,168.191 120.967,166.691 123.5,165C 122.944,164.617 122.611,164.117 122.5,163.5 Z"/></g>
<g><path style="opacity:0.804" fill="#6a7186" d="M 127.5,166.5 C 129.245,168.033 130.245,170.033 130.5,172.5C 129.33,170.721 127.664,169.721 125.5,169.5C 126.551,168.778 127.218,167.778 127.5,166.5 Z"/></g>
<g><path style="opacity:1" fill="#1e2a46" d="M 186.5,150.5 C 186.833,150.5 187.167,150.5 187.5,150.5C 187.17,166.009 187.504,181.342 188.5,196.5C 189.248,198.332 190.248,199.999 191.5,201.5C 186.637,201.819 181.97,201.486 177.5,200.5C 177.932,199.29 178.599,198.29 179.5,197.5C 179.833,197.5 180.167,197.5 180.5,197.5C 180.833,197.5 181.167,197.5 181.5,197.5C 181.5,198.5 181.5,199.5 181.5,200.5C 182.833,200.5 184.167,200.5 185.5,200.5C 186.17,187.861 186.17,175.194 185.5,162.5C 185.5,159.5 185.5,156.5 185.5,153.5C 186.11,152.609 186.443,151.609 186.5,150.5 Z"/></g>
<g><path style="opacity:1" fill="#414a61" d="M 210.5,160.5 C 213.295,162.751 215.628,165.418 217.5,168.5C 216.833,168.833 216.167,169.167 215.5,169.5C 214.309,167.673 212.975,166.007 211.5,164.5C 211.167,163.167 210.833,161.833 210.5,160.5 Z"/></g>
<g><path style="opacity:0.485" fill="#575f77" d="M 45.5,159.5 C 44.8058,164.805 44.4724,170.138 44.5,175.5C 43.838,173.696 43.5046,171.696 43.5,169.5C 43.3981,165.883 44.0648,162.55 45.5,159.5 Z"/></g>
<g><path style="opacity:0.254" fill="#b2b9c5" d="M 75.5,170.5 C 85.008,169.177 94.6746,169.177 104.5,170.5C 104.376,171.107 104.043,171.44 103.5,171.5C 94.3483,170.506 85.015,170.173 75.5,170.5 Z"/></g>
<g><path style="opacity:1" fill="#18244d" d="M 135.5,167.5 C 138.06,174.059 142.394,179.059 148.5,182.5C 147.878,183.627 147.045,184.627 146,185.5C 144.809,182.466 142.642,180.799 139.5,180.5C 139.067,177.741 137.4,176.408 134.5,176.5C 134.512,173.858 133.179,172.525 130.5,172.5C 130.245,170.033 129.245,168.033 127.5,166.5C 126.5,166.167 125.833,165.5 125.5,164.5C 124.621,162.772 123.954,160.939 123.5,159C 123.833,158.167 124.167,157.333 124.5,156.5C 126.257,162.208 129.924,165.875 135.5,167.5 Z"/></g>
<g><path style="opacity:0.341" fill="#a8aeb8" d="M 165.5,169.5 C 162.167,170.167 158.833,170.833 155.5,171.5C 154.624,171.631 153.957,171.298 153.5,170.5C 157.445,169.509 161.445,169.176 165.5,169.5 Z"/></g>
<g><path style="opacity:0.071" fill="#d7dceb" d="M 187.5,150.5 C 188.833,150.5 189.5,151.167 189.5,152.5C 188.504,166.99 188.171,181.657 188.5,196.5C 187.504,181.342 187.17,166.009 187.5,150.5 Z"/></g>
<g><path style="opacity:0.616" fill="#969ca9" d="M 217.5,168.5 C 220.243,170.239 222.243,172.573 223.5,175.5C 220.757,173.761 218.757,171.427 217.5,168.5 Z"/></g>
<g><path style="opacity:0.918" fill="#4d5468" d="M 75.5,170.5 C 85.015,170.173 94.3483,170.506 103.5,171.5C 102.206,172.29 101.039,173.29 100,174.5C 99.8292,182.677 99.3292,190.677 98.5,198.5C 98.5,190.5 98.5,182.5 98.5,174.5C 98.4226,173.25 97.756,172.417 96.5,172C 93.3035,171.195 90.3035,171.362 87.5,172.5C 86.4937,172.938 86.4937,173.604 87.5,174.5C 86.391,174.443 85.391,174.11 84.5,173.5C 80.8413,173.851 77.8413,172.851 75.5,170.5 Z"/></g>
<g><path style="opacity:0.974" fill="#363f56" d="M 165.5,169.5 C 165.833,169.5 166.167,169.5 166.5,169.5C 168.048,169.821 168.715,170.821 168.5,172.5C 167.205,173.488 165.872,174.488 164.5,175.5C 164.241,171.932 162.241,170.599 158.5,171.5C 158.737,172.791 158.404,173.791 157.5,174.5C 156.833,173.5 156.167,172.5 155.5,171.5C 158.833,170.833 162.167,170.167 165.5,169.5 Z"/></g>
<g><path style="opacity:0.604" fill="#a7a8ad" d="M 166.5,169.5 C 167.542,168.209 168.708,168.209 170,169.5C 170.585,170.998 170.085,171.998 168.5,172.5C 168.715,170.821 168.048,169.821 166.5,169.5 Z"/></g>
<g><path style="opacity:1" fill="#4d566b" d="M 202.5,167.5 C 203.552,167.351 204.552,167.517 205.5,168C 206.384,169.72 207.717,170.886 209.5,171.5C 209.971,173.579 210.637,175.579 211.5,177.5C 207.839,174.835 204.839,171.502 202.5,167.5 Z"/></g>
<g><path style="opacity:1" fill="#343c58" d="M 135.5,167.5 C 137.167,168.5 138.5,169.833 139.5,171.5C 139.5,173.5 140.5,174.5 142.5,174.5C 144.833,176.167 146.833,178.167 148.5,180.5C 148.5,181.167 148.5,181.833 148.5,182.5C 142.394,179.059 138.06,174.059 135.5,167.5 Z"/></g>
<g><path style="opacity:1" fill="#1d2b4c" d="M 45.5,153.5 C 45.5,155.5 45.5,157.5 45.5,159.5C 44.0648,162.55 43.3981,165.883 43.5,169.5C 43.5046,171.696 43.838,173.696 44.5,175.5C 45.4345,176.568 45.7678,177.901 45.5,179.5C 45.5172,181.565 45.8505,183.565 46.5,185.5C 45.2921,184.766 43.9587,184.433 42.5,184.5C 41.0174,177.319 40.3507,170.153 40.5,163C 41.3195,161.2 41.9862,159.366 42.5,157.5C 43.5116,156.128 44.5116,154.795 45.5,153.5 Z"/></g>
<g><path style="opacity:1" fill="#58637b" d="M 114.5,171.5 C 113.402,172.397 113.402,173.23 114.5,174C 112.591,175.356 110.924,176.856 109.5,178.5C 110.069,175.281 111.736,172.948 114.5,171.5 Z"/></g>
<g><path style="opacity:0.914" fill="#6f7789" d="M 130.5,172.5 C 133.179,172.525 134.512,173.858 134.5,176.5C 132.833,175.5 131.5,174.167 130.5,172.5 Z"/></g>
<g><path style="opacity:0.427" fill="#8f99a8" d="M 139.5,171.5 C 140.833,172.167 141.833,173.167 142.5,174.5C 140.5,174.5 139.5,173.5 139.5,171.5 Z"/></g>
<g><path style="opacity:1" fill="#273351" d="M 53.5,138.5 C 52.1667,139.833 50.8333,141.167 49.5,142.5C 46.3064,144.51 43.3064,146.843 40.5,149.5C 39.438,151.022 38.7713,152.688 38.5,154.5C 37.5416,154.953 36.7083,155.619 36,156.5C 34.8599,161.282 34.3599,165.949 34.5,170.5C 35.2923,177.814 36.9589,184.814 39.5,191.5C 36.9832,188.981 35.3166,185.981 34.5,182.5C 34.6107,181.883 34.944,181.383 35.5,181C 33.6081,177.687 32.2747,174.187 31.5,170.5C 30.5946,169.298 30.5946,167.964 31.5,166.5C 32.9927,163.417 33.9927,160.083 34.5,156.5C 35.2872,153.592 36.6205,150.926 38.5,148.5C 41.4274,147.243 43.7607,145.243 45.5,142.5C 47.5792,140.127 50.2459,138.794 53.5,138.5 Z"/></g>
<g><path style="opacity:1" fill="#1a294e" d="M 217.5,168.5 C 218.757,171.427 220.757,173.761 223.5,175.5C 224.167,175.5 224.5,175.833 224.5,176.5C 224.738,178.404 225.738,179.738 227.5,180.5C 227.5,181.833 227.5,183.167 227.5,184.5C 226.596,183.791 226.263,182.791 226.5,181.5C 225.5,181.5 224.5,181.5 223.5,181.5C 222.966,186.303 224.633,190.137 228.5,193C 227.829,193.986 227.829,195.153 228.5,196.5C 226.167,194.833 224.167,192.833 222.5,190.5C 221.283,187.603 219.616,184.936 217.5,182.5C 216.007,180.33 214.007,178.996 211.5,178.5C 211.5,178.167 211.5,177.833 211.5,177.5C 210.637,175.579 209.971,173.579 209.5,171.5C 211.466,172.441 213.466,173.441 215.5,174.5C 216.434,172.905 216.434,171.239 215.5,169.5C 216.167,169.167 216.833,168.833 217.5,168.5 Z"/></g>
<g><path style="opacity:0.396" fill="#9da5b8" d="M 84.5,173.5 C 85.391,174.11 86.391,174.443 87.5,174.5C 87.5,174.833 87.5,175.167 87.5,175.5C 87.8229,181.69 87.4896,187.69 86.5,193.5C 86.9941,186.623 86.3275,179.956 84.5,173.5 Z"/></g>
<g><path style="opacity:0.698" fill="#6a738a" d="M 31.5,170.5 C 32.2747,174.187 33.6081,177.687 35.5,181C 34.944,181.383 34.6107,181.883 34.5,182.5C 33.8826,182.389 33.3826,182.056 33,181.5C 32.0642,177.886 31.5642,174.22 31.5,170.5 Z"/></g>
<g><path style="opacity:0.833" fill="#5d677c" d="M 134.5,176.5 C 137.4,176.408 139.067,177.741 139.5,180.5C 139.833,181.167 140.167,181.833 140.5,182.5C 138.077,181.05 136.077,179.05 134.5,176.5 Z"/></g>
<g><path style="opacity:0.416" fill="#a0a3b0" d="M 224.5,176.5 C 226.262,177.262 227.262,178.596 227.5,180.5C 225.738,179.738 224.738,178.404 224.5,176.5 Z"/></g>
<g><path style="opacity:1" fill="#2d3a54" d="M 164.5,175.5 C 162.467,178.523 160.467,181.523 158.5,184.5C 158.167,184.5 157.833,184.5 157.5,184.5C 157.196,182.204 156.196,181.871 154.5,183.5C 154.833,182.167 155.167,180.833 155.5,179.5C 155.12,177.302 155.787,175.635 157.5,174.5C 158.404,173.791 158.737,172.791 158.5,171.5C 162.241,170.599 164.241,171.932 164.5,175.5 Z"/></g>
<g><path style="opacity:1" fill="#162654" d="M 87.5,172.5 C 90.1194,172.232 92.6194,172.565 95,173.5C 96.1968,179.129 96.5302,184.796 96,190.5C 94.9335,188.717 93.4335,188.217 91.5,189C 91.8333,189.333 92.1667,189.667 92.5,190C 91.6057,191.104 90.6057,192.27 89.5,193.5C 89.2418,188.283 89.5751,183.116 90.5,178C 89.8699,176.69 88.8699,175.856 87.5,175.5C 87.5,175.167 87.5,174.833 87.5,174.5C 86.4937,173.604 86.4937,172.938 87.5,172.5 Z"/></g>
<g><path style="opacity:0.957" fill="#666d81" d="M 211.5,178.5 C 214.007,178.996 216.007,180.33 217.5,182.5C 219.616,184.936 221.283,187.603 222.5,190.5C 218.493,186.826 214.826,182.826 211.5,178.5 Z"/></g>
<g><path style="opacity:1" fill="#14244e" d="M 185.5,162.5 C 186.17,175.194 186.17,187.861 185.5,200.5C 184.167,200.5 182.833,200.5 181.5,200.5C 181.5,199.5 181.5,198.5 181.5,197.5C 181.334,187.161 181.5,176.828 182,166.5C 182.14,163.957 182.806,161.623 184,159.5C 184.232,160.737 184.732,161.737 185.5,162.5 Z"/></g>
<g><path style="opacity:0.239" fill="#aeafbc" d="M 148.5,180.5 C 149.906,180.973 150.573,181.973 150.5,183.5C 149.833,183.167 149.167,182.833 148.5,182.5C 148.5,181.833 148.5,181.167 148.5,180.5 Z"/></g>
<g><path style="opacity:0.835" fill="#7f8499" d="M 155.5,179.5 C 155.167,180.833 154.833,182.167 154.5,183.5C 153.167,184.833 151.833,184.833 150.5,183.5C 151.5,183.5 152.5,183.5 153.5,183.5C 153.229,181.62 153.896,180.287 155.5,179.5 Z"/></g>
<g><path style="opacity:1" fill="#15244d" d="M 114.5,171.5 C 115.5,171.5 116.5,171.5 117.5,171.5C 117.552,173.903 117.219,176.236 116.5,178.5C 115.252,179.334 114.585,180.667 114.5,182.5C 114.806,185.532 115.306,188.532 116,191.5C 120.919,196.93 126.752,199.93 133.5,200.5C 133,201.881 132,202.547 130.5,202.5C 127.459,202.018 124.459,201.351 121.5,200.5C 117.56,198.872 114.227,196.538 111.5,193.5C 111.649,192.448 111.483,191.448 111,190.5C 110.667,190.833 110.333,191.167 110,191.5C 109.501,187.179 109.334,182.846 109.5,178.5C 110.924,176.856 112.591,175.356 114.5,174C 113.402,173.23 113.402,172.397 114.5,171.5 Z"/></g>
<g><path style="opacity:0.62" fill="#868f9f" d="M 142.5,185.5 C 144.531,186.539 145.864,188.205 146.5,190.5C 144.457,189.421 143.124,187.754 142.5,185.5 Z"/></g>
<g><path style="opacity:0.976" fill="#1a274b" d="M 139.5,180.5 C 142.642,180.799 144.809,182.466 146,185.5C 147.045,184.627 147.878,183.627 148.5,182.5C 149.167,182.833 149.833,183.167 150.5,183.5C 151.833,184.833 153.167,184.833 154.5,183.5C 156.196,181.871 157.196,182.204 157.5,184.5C 156.737,185.268 155.737,185.768 154.5,186C 155.129,188.375 156.129,190.541 157.5,192.5C 157.414,193.496 157.748,194.329 158.5,195C 160.863,197.18 163.53,198.847 166.5,200C 163.151,200.388 159.817,200.221 156.5,199.5C 155.833,199.5 155.5,199.167 155.5,198.5C 154.952,197.312 154.619,196.145 154.5,195C 151.053,194.731 148.386,193.231 146.5,190.5C 145.864,188.205 144.531,186.539 142.5,185.5C 141.094,185.027 140.427,184.027 140.5,182.5C 140.167,181.833 139.833,181.167 139.5,180.5 Z"/></g>
<g><path style="opacity:1" fill="#1c2b4e" d="M 236.5,166.5 C 236.173,175.682 236.507,184.682 237.5,193.5C 237.5,196.5 237.5,199.5 237.5,202.5C 235.179,201.523 232.846,200.523 230.5,199.5C 229.449,198.778 228.782,197.778 228.5,196.5C 230.167,196.5 231.833,196.5 233.5,196.5C 233.423,192.038 234.09,187.705 235.5,183.5C 235.178,177.642 235.511,171.975 236.5,166.5 Z"/></g>
<g><path style="opacity:1" fill="#142652" d="M 227.5,184.5 C 228.472,186.493 229.805,186.826 231.5,185.5C 231.783,186.289 232.283,186.956 233,187.5C 233.2,185.68 234.034,184.347 235.5,183.5C 234.09,187.705 233.423,192.038 233.5,196.5C 231.833,196.5 230.167,196.5 228.5,196.5C 227.829,195.153 227.829,193.986 228.5,193C 224.633,190.137 222.966,186.303 223.5,181.5C 224.5,181.5 225.5,181.5 226.5,181.5C 226.263,182.791 226.596,183.791 227.5,184.5 Z"/></g>
<g><path style="opacity:1" fill="#172650" d="M 87.5,172.5 C 90.3035,171.362 93.3035,171.195 96.5,172C 97.756,172.417 98.4226,173.25 98.5,174.5C 97.508,181.982 97.1746,189.648 97.5,197.5C 95.1432,197.663 92.8098,197.497 90.5,197C 89.6634,195.989 89.33,194.822 89.5,193.5C 90.6057,192.27 91.6057,191.104 92.5,190C 92.1667,189.667 91.8333,189.333 91.5,189C 93.4335,188.217 94.9335,188.717 96,190.5C 96.5302,184.796 96.1968,179.129 95,173.5C 92.6194,172.565 90.1194,172.232 87.5,172.5 Z"/></g>
<g><path style="opacity:1" fill="#5d677e" d="M 45.5,179.5 C 47.1473,182.795 48.8139,186.128 50.5,189.5C 49.8826,189.389 49.3826,189.056 49,188.5C 48.7216,189.416 48.2216,190.082 47.5,190.5C 47.7845,188.585 47.4511,186.919 46.5,185.5C 45.8505,183.565 45.5172,181.565 45.5,179.5 Z"/></g>
<g><path style="opacity:0.533" fill="#7d879a" d="M 157.5,184.5 C 157.833,184.5 158.167,184.5 158.5,184.5C 158.297,186.044 157.63,187.378 156.5,188.5C 157.857,190.186 159.19,191.852 160.5,193.5C 159.391,193.443 158.391,193.11 157.5,192.5C 156.129,190.541 155.129,188.375 154.5,186C 155.737,185.768 156.737,185.268 157.5,184.5 Z"/></g>
<g><path style="opacity:0.306" fill="#999ea9" d="M 117.5,189.5 C 118.906,189.973 119.573,190.973 119.5,192.5C 118.094,192.027 117.427,191.027 117.5,189.5 Z"/></g>
<g><path style="opacity:1" fill="#525b71" d="M 39.5,191.5 C 41.2915,191.366 42.9582,191.699 44.5,192.5C 44.3505,193.552 44.5172,194.552 45,195.5C 46.9923,196.328 48.4923,197.661 49.5,199.5C 45.296,197.967 41.9626,195.3 39.5,191.5 Z"/></g>
<g><path style="opacity:0.776" fill="#555f72" d="M 50.5,189.5 C 52.5398,191.177 54.5398,192.844 56.5,194.5C 55.1529,193.829 53.9862,193.829 53,194.5C 51.5619,193.1 50.7286,191.433 50.5,189.5 Z"/></g>
<g><path style="opacity:0.992" fill="#5b6379" d="M 109.5,178.5 C 109.334,182.846 109.501,187.179 110,191.5C 110.333,191.167 110.667,190.833 111,190.5C 111.483,191.448 111.649,192.448 111.5,193.5C 111.833,194.833 112.167,196.167 112.5,197.5C 110.864,196.251 109.697,194.584 109,192.5C 108.185,187.648 108.352,182.981 109.5,178.5 Z"/></g>
<g><path style="opacity:1" fill="#263050" d="M 98.5,174.5 C 98.5,182.5 98.5,190.5 98.5,198.5C 94.1033,200.405 89.4366,201.739 84.5,202.5C 82.1667,202.5 79.8333,202.5 77.5,202.5C 75.6916,202.509 74.0249,202.009 72.5,201C 75.1909,200.844 77.5242,200.011 79.5,198.5C 79.5,198.167 79.5,197.833 79.5,197.5C 79.8333,197.5 80.1667,197.5 80.5,197.5C 82.698,197.88 84.3646,197.213 85.5,195.5C 86.3382,195.158 86.6716,194.492 86.5,193.5C 87.4896,187.69 87.8229,181.69 87.5,175.5C 88.8699,175.856 89.8699,176.69 90.5,178C 89.5751,183.116 89.2418,188.283 89.5,193.5C 89.33,194.822 89.6634,195.989 90.5,197C 92.8098,197.497 95.1432,197.663 97.5,197.5C 97.1746,189.648 97.508,181.982 98.5,174.5 Z"/></g>
<g><path style="opacity:0.992" fill="#51586f" d="M 146.5,190.5 C 148.386,193.231 151.053,194.731 154.5,195C 154.619,196.145 154.952,197.312 155.5,198.5C 153.606,197.952 151.94,196.952 150.5,195.5C 147.721,197.624 144.721,199.291 141.5,200.5C 142.953,199.175 142.619,198.342 140.5,198C 135.649,197.826 130.982,197.326 126.5,196.5C 134.346,197.876 141.012,195.876 146.5,190.5 Z"/></g>
<g><path style="opacity:0.439" fill="#a1aab0" d="M 85.5,195.5 C 84.3646,197.213 82.698,197.88 80.5,197.5C 81.9303,196.463 83.597,195.796 85.5,195.5 Z"/></g>
<g><path style="opacity:0.569" fill="#697386" d="M 112.5,197.5 C 114.404,197.738 115.738,198.738 116.5,200.5C 114.596,200.262 113.262,199.262 112.5,197.5 Z"/></g>
<g><path style="opacity:0.22" fill="#798293" d="M 64.5,197.5 C 69.4908,198.752 74.4908,198.752 79.5,197.5C 79.5,197.833 79.5,198.167 79.5,198.5C 74.8708,199.481 70.2041,199.648 65.5,199C 64.944,198.617 64.6107,198.117 64.5,197.5 Z"/></g>
<g><path style="opacity:0.137" fill="#b2bfd1" d="M 49.5,199.5 C 51.3797,199.229 52.713,199.896 53.5,201.5C 51.847,201.34 50.5137,200.674 49.5,199.5 Z"/></g>
<g><path style="opacity:1" fill="#1d294b" d="M 50.5,189.5 C 50.7286,191.433 51.5619,193.1 53,194.5C 53.9862,193.829 55.1529,193.829 56.5,194.5C 59.1667,195.5 61.8333,196.5 64.5,197.5C 64.6107,198.117 64.944,198.617 65.5,199C 70.2041,199.648 74.8708,199.481 79.5,198.5C 77.5242,200.011 75.1909,200.844 72.5,201C 74.0249,202.009 75.6916,202.509 77.5,202.5C 72.6946,203.487 67.6946,203.821 62.5,203.5C 60.22,201.777 57.5533,201.111 54.5,201.5C 54.1667,201.5 53.8333,201.5 53.5,201.5C 52.713,199.896 51.3797,199.229 49.5,199.5C 48.4923,197.661 46.9923,196.328 45,195.5C 44.5172,194.552 44.3505,193.552 44.5,192.5C 46.0269,192.573 47.0269,191.906 47.5,190.5C 48.2216,190.082 48.7216,189.416 49,188.5C 49.3826,189.056 49.8826,189.389 50.5,189.5 Z"/></g>
<g><path style="opacity:0.914" fill="#535b70" d="M 116.5,200.5 C 119.438,200.977 122.104,201.977 124.5,203.5C 121.169,203.982 118.503,202.982 116.5,200.5 Z"/></g>
<g><path style="opacity:1" fill="#2e3554" d="M 116.5,178.5 C 116.5,179.5 116.5,180.5 116.5,181.5C 116.833,184.167 117.167,186.833 117.5,189.5C 117.427,191.027 118.094,192.027 119.5,192.5C 121.336,194.588 123.669,195.921 126.5,196.5C 130.982,197.326 135.649,197.826 140.5,198C 142.619,198.342 142.953,199.175 141.5,200.5C 141.158,201.338 140.492,201.672 139.5,201.5C 137.447,201.402 135.78,202.069 134.5,203.5C 131.031,204.7 127.698,204.7 124.5,203.5C 122.104,201.977 119.438,200.977 116.5,200.5C 115.738,198.738 114.404,197.738 112.5,197.5C 112.167,196.167 111.833,194.833 111.5,193.5C 114.227,196.538 117.56,198.872 121.5,200.5C 124.459,201.351 127.459,202.018 130.5,202.5C 132,202.547 133,201.881 133.5,200.5C 126.752,199.93 120.919,196.93 116,191.5C 115.306,188.532 114.806,185.532 114.5,182.5C 114.585,180.667 115.252,179.334 116.5,178.5 Z"/></g>
<g><path style="opacity:0.922" fill="#40465f" d="M 157.5,192.5 C 158.391,193.11 159.391,193.443 160.5,193.5C 163.857,195.866 167.19,198.199 170.5,200.5C 167.713,201.477 164.713,201.81 161.5,201.5C 159.447,201.598 157.78,200.931 156.5,199.5C 159.817,200.221 163.151,200.388 166.5,200C 163.53,198.847 160.863,197.18 158.5,195C 157.748,194.329 157.414,193.496 157.5,192.5 Z"/></g>
<g><path style="opacity:0.788" fill="#535c71" d="M 54.5,201.5 C 57.5533,201.111 60.22,201.777 62.5,203.5C 59.5049,203.706 56.8383,203.04 54.5,201.5 Z"/></g>
<g><path style="opacity:0.414" fill="#989ea9" d="M 170.5,200.5 C 171.756,200.461 172.756,200.961 173.5,202C 169.311,202.812 165.311,202.645 161.5,201.5C 164.713,201.81 167.713,201.477 170.5,200.5 Z"/></g>
<g><path style="opacity:0.402" fill="#9195a3" d="M 177.5,200.5 C 181.97,201.486 186.637,201.819 191.5,201.5C 186.652,202.814 181.652,202.814 176.5,201.5C 176.624,200.893 176.957,200.56 177.5,200.5 Z"/></g>
<g><path style="opacity:0.071" fill="#bbbdd3" d="M 139.5,201.5 C 138.22,202.931 136.553,203.598 134.5,203.5C 135.78,202.069 137.447,201.402 139.5,201.5 Z"/></g>
<g><path style="opacity:0.416" fill="#8f959f" d="M 238.5,173.5 C 238.5,183.5 238.5,193.5 238.5,203.5C 234.74,204.226 232.073,202.893 230.5,199.5C 232.846,200.523 235.179,201.523 237.5,202.5C 237.5,199.5 237.5,196.5 237.5,193.5C 237.176,186.646 237.509,179.979 238.5,173.5 Z"/></g>
<g><path style="opacity:0.254" fill="#959aab" d="M 77.5,202.5 C 79.8333,202.5 82.1667,202.5 84.5,202.5C 80.0789,203.912 75.4122,204.579 70.5,204.5C 67.6445,204.497 64.9779,204.164 62.5,203.5C 67.6946,203.821 72.6946,203.487 77.5,202.5 Z"/></g>
<g><path style="opacity:0.027" fill="#cecfd7" d="M 236.5,215.5 C 237.708,214.218 239.042,214.218 240.5,215.5C 240.376,216.107 240.043,216.44 239.5,216.5C 238.791,215.596 237.791,215.263 236.5,215.5 Z"/></g>
<g><path style="opacity:0.992" fill="#3b3f4c" d="M 236.5,215.5 C 237.791,215.263 238.791,215.596 239.5,216.5C 238.833,217.833 237.833,218.833 236.5,219.5C 234.901,219.768 233.568,219.434 232.5,218.5C 233.262,216.738 234.596,215.738 236.5,215.5 Z"/></g>
<g><path style="opacity:0.275" fill="#8d94aa" d="M 232.5,218.5 C 233.568,219.434 234.901,219.768 236.5,219.5C 236.167,220.167 235.833,220.833 235.5,221.5C 234.167,221.5 232.833,221.5 231.5,221.5C 231.263,220.209 231.596,219.209 232.5,218.5 Z"/></g>
<g><path style="opacity:0.161" fill="#9095a4" d="M 67.5,221.5 C 66.1667,221.5 64.8333,221.5 63.5,221.5C 63.8229,227.69 63.4896,233.69 62.5,239.5C 62.5,233.167 62.5,226.833 62.5,220.5C 64.4147,220.216 66.0813,220.549 67.5,221.5 Z"/></g>
<g><path style="opacity:0.078" fill="#78808a" d="M 173.5,221.5 C 167.794,221.171 162.128,221.505 156.5,222.5C 156.863,223.183 157.196,223.85 157.5,224.5C 156.833,224.5 156.5,224.833 156.5,225.5C 155.624,225.631 154.957,225.298 154.5,224.5C 155.002,223.284 155.335,222.117 155.5,221C 161.681,220.181 167.681,220.347 173.5,221.5 Z"/></g>
<g><path style="opacity:0.063" fill="#787e90" d="M 206.5,221.5 C 211.808,220.05 217.141,220.384 222.5,222.5C 223.298,222.957 223.631,223.624 223.5,224.5C 218.226,221.891 212.559,220.891 206.5,221.5 Z"/></g>
<g><path style="opacity:0.98" fill="#282f43" d="M 40.5,221.5 C 41.1667,221.5 41.8333,221.5 42.5,221.5C 45.9144,221.073 48.7478,222.073 51,224.5C 51.6708,223.748 52.5041,223.414 53.5,223.5C 55.0974,225.756 54.4307,227.09 51.5,227.5C 50.2223,227.218 49.2223,226.551 48.5,225.5C 48.2089,224.351 47.3756,223.684 46,223.5C 44.175,223.943 42.3417,224.277 40.5,224.5C 40.5,223.5 40.5,222.5 40.5,221.5 Z"/></g>
<g><path style="opacity:0.984" fill="#37404e" d="M 102.5,221.5 C 103.686,222.961 103.686,224.295 102.5,225.5C 101.833,225.5 101.167,225.5 100.5,225.5C 98.3704,224.289 96.3704,222.956 94.5,221.5C 97.0613,220.233 99.728,220.233 102.5,221.5 Z"/></g>
<g><path style="opacity:0.114" fill="#aaaeb4" d="M 127.5,221.5 C 128.568,220.566 129.901,220.232 131.5,220.5C 131.768,222.099 131.434,223.432 130.5,224.5C 130.5,223.5 130.5,222.5 130.5,221.5C 129.5,221.5 128.5,221.5 127.5,221.5 Z"/></g>
<g><path style="opacity:0.998" fill="#55596a" d="M 19.5,224.5 C 20.7175,223.839 22.0508,223.172 23.5,222.5C 22.6667,222.167 21.8333,221.833 21,221.5C 18.7298,222.86 16.2298,223.527 13.5,223.5C 14.347,222.034 15.6803,221.2 17.5,221C 22.1119,219.889 26.1119,220.889 29.5,224C 28.5189,227.422 27.0189,227.922 25,225.5C 23.2341,224.767 21.4008,224.433 19.5,224.5 Z"/></g>
<g><path style="opacity:0.976" fill="#4c5364" d="M 198.5,224.5 C 197.033,223.708 195.7,223.708 194.5,224.5C 195.747,226.323 196.414,228.323 196.5,230.5C 192.296,222.945 187.629,222.611 182.5,229.5C 182.286,227.856 182.62,226.356 183.5,225C 181.6,225.213 179.933,226.047 178.5,227.5C 181.592,221.4 186.592,219.233 193.5,221C 195.584,221.697 197.251,222.864 198.5,224.5 Z"/></g>
<g><path style="opacity:0.992" fill="#606679" d="M 40.5,221.5 C 40.5,222.5 40.5,223.5 40.5,224.5C 42.3417,224.277 44.175,223.943 46,223.5C 47.3756,223.684 48.2089,224.351 48.5,225.5C 45.2006,224.482 42.2006,225.148 39.5,227.5C 39.5,225.5 38.5,224.5 36.5,224.5C 37.795,223.512 39.1283,222.512 40.5,221.5 Z"/></g>
<g><path style="opacity:0.996" fill="#696e7d" d="M 42.5,221.5 C 46.5062,219.931 50.1728,220.598 53.5,223.5C 52.5041,223.414 51.6708,223.748 51,224.5C 48.7478,222.073 45.9144,221.073 42.5,221.5 Z"/></g>
<g><path style="opacity:1" fill="#252c44" d="M 67.5,221.5 C 69.2624,222.262 70.2624,223.596 70.5,225.5C 69.5525,226.978 68.2191,227.978 66.5,228.5C 66.5,233.167 66.5,237.833 66.5,242.5C 65.1667,242.5 63.8333,242.5 62.5,242.5C 62.5,241.5 62.5,240.5 62.5,239.5C 63.4896,233.69 63.8229,227.69 63.5,221.5C 64.8333,221.5 66.1667,221.5 67.5,221.5 Z"/></g>
<g><path style="opacity:0.878" fill="#5a6679" d="M 94.5,221.5 C 96.3704,222.956 98.3704,224.289 100.5,225.5C 97.689,223.911 95.689,224.577 94.5,227.5C 93.7677,226.192 92.9344,224.858 92,223.5C 91.6174,224.056 91.1174,224.389 90.5,224.5C 91.0347,222.554 92.368,221.554 94.5,221.5 Z"/></g>
<g><path style="opacity:0.773" fill="#7a8087" d="M 102.5,221.5 C 106.106,222.815 106.272,224.815 103,227.5C 102.536,226.906 102.369,226.239 102.5,225.5C 103.686,224.295 103.686,222.961 102.5,221.5 Z"/></g>
<g><path style="opacity:0.996" fill="#292d49" d="M 206.5,222.5 C 206.5,222.167 206.5,221.833 206.5,221.5C 212.559,220.891 218.226,221.891 223.5,224.5C 224.833,226.5 224.833,228.5 223.5,230.5C 222.25,230.577 221.417,231.244 221,232.5C 220.5,232 220,231.5 219.5,231C 220.801,229.384 220.801,227.884 219.5,226.5C 219.5,225.833 219.167,225.5 218.5,225.5C 217.378,224.844 216.045,224.511 214.5,224.5C 212.667,224.585 211.334,225.252 210.5,226.5C 209.883,226.611 209.383,226.944 209,227.5C 208.243,225.685 207.41,224.019 206.5,222.5 Z"/></g>
<g><path style="opacity:0.129" fill="#afb7c1" d="M 231.5,221.5 C 231.5,228.167 231.5,234.833 231.5,241.5C 233.483,241.843 234.817,241.176 235.5,239.5C 236.404,240.209 236.737,241.209 236.5,242.5C 234.5,242.5 232.5,242.5 230.5,242.5C 230.175,235.313 230.509,228.313 231.5,221.5 Z"/></g>
<g><path style="opacity:0.165" fill="#c1c2cb" d="M 13.5,223.5 C 12.8333,224.833 11.8333,225.833 10.5,226.5C 10.5,224.5 11.5,223.5 13.5,223.5 Z"/></g>
<g><path style="opacity:0.798" fill="#343c58" d="M 231.5,221.5 C 232.833,221.5 234.167,221.5 235.5,221.5C 236.187,227.58 236.187,233.58 235.5,239.5C 234.817,241.176 233.483,241.843 231.5,241.5C 231.5,234.833 231.5,228.167 231.5,221.5 Z"/></g>
<g><path style="opacity:0.153" fill="#bbbdca" d="M 36.5,224.5 C 36.573,226.027 35.9063,227.027 34.5,227.5C 34.427,225.973 35.0937,224.973 36.5,224.5 Z"/></g>
<g><path style="opacity:0.718" fill="#7d8494" d="M 117.5,235.5 C 116.514,231.03 116.181,226.363 116.5,221.5C 115.5,221.5 114.5,221.5 113.5,221.5C 113.249,227.892 113.582,234.225 114.5,240.5C 113.883,240.389 113.383,240.056 113,239.5C 112.81,233.584 112.31,227.751 111.5,222C 113.25,220.681 115.25,220.181 117.5,220.5C 117.5,225.5 117.5,230.5 117.5,235.5 Z"/></g>
<g><path style="opacity:1" fill="#313b4f" d="M 198.5,224.5 C 202.026,228.875 202.36,233.542 199.5,238.5C 196.321,239.721 192.988,240.721 189.5,241.5C 187.833,241.333 186.167,241.167 184.5,241C 186.833,239.957 189.166,239.124 191.5,238.5C 191.833,238.5 192.167,238.5 192.5,238.5C 194.833,238.167 196.167,236.833 196.5,234.5C 196.5,233.167 196.5,231.833 196.5,230.5C 196.414,228.323 195.747,226.323 194.5,224.5C 195.7,223.708 197.033,223.708 198.5,224.5 Z"/></g>
<g><path style="opacity:0.992" fill="#5a6178" d="M 53.5,223.5 C 57.9328,227.629 58.5994,232.295 55.5,237.5C 55.6488,234.393 55.1488,231.393 54,228.5C 53.8019,230.382 53.3019,232.048 52.5,233.5C 52.1667,231.5 51.8333,229.5 51.5,227.5C 54.4307,227.09 55.0974,225.756 53.5,223.5 Z"/></g>
<g><path style="opacity:1" fill="#585e73" d="M 70.5,225.5 C 72.2644,226.326 73.5977,227.659 74.5,229.5C 70.9912,227.926 69.9912,228.926 71.5,232.5C 69.8459,231.25 68.1793,229.916 66.5,228.5C 68.2191,227.978 69.5525,226.978 70.5,225.5 Z"/></g>
<g><path style="opacity:0.341" fill="#a2abbd" d="M 218.5,225.5 C 216.167,225.5 213.833,225.5 211.5,225.5C 211.5,227.167 211.5,228.833 211.5,230.5C 213.167,230.5 214.833,230.5 216.5,230.5C 216.5,230.833 216.5,231.167 216.5,231.5C 214.5,231.5 212.5,231.5 210.5,231.5C 210.5,229.833 210.5,228.167 210.5,226.5C 211.334,225.252 212.667,224.585 214.5,224.5C 216.045,224.511 217.378,224.844 218.5,225.5 Z"/></g>
<g><path style="opacity:0.804" fill="#626c7c" d="M 249.5,221.5 C 249.739,223.467 249.406,225.301 248.5,227C 249.858,227.934 251.192,228.768 252.5,229.5C 250.554,230.035 249.554,231.368 249.5,233.5C 248.71,232.391 248.21,231.058 248,229.5C 247.583,230.756 246.75,231.423 245.5,231.5C 246.658,228.011 247.991,224.678 249.5,221.5 Z"/></g>
<g><path style="opacity:0.18" fill="#abb2bc" d="M 142.5,221.5 C 141.167,221.5 139.833,221.5 138.5,221.5C 138.5,228.5 138.5,235.5 138.5,242.5C 137.508,235.352 137.175,228.019 137.5,220.5C 139.415,220.216 141.081,220.549 142.5,221.5 Z"/></g>
<g><path style="opacity:1" fill="#2d334e" d="M 173.5,221.5 C 174.434,222.568 174.768,223.901 174.5,225.5C 171.833,225.5 169.167,225.5 166.5,225.5C 165.512,230.64 165.179,235.974 165.5,241.5C 164.5,241.5 163.5,241.5 162.5,241.5C 162.5,235.833 162.5,230.167 162.5,224.5C 160.833,224.5 159.167,224.5 157.5,224.5C 157.196,223.85 156.863,223.183 156.5,222.5C 162.128,221.505 167.794,221.171 173.5,221.5 Z"/></g>
<g><path style="opacity:0.071" fill="#a5adbe" d="M 97.5,228.5 C 99.3797,228.229 100.713,228.896 101.5,230.5C 99.847,230.34 98.5137,229.674 97.5,228.5 Z"/></g>
<g><path style="opacity:0.169" fill="#bac2cf" d="M 156.5,225.5 C 156.5,224.833 156.833,224.5 157.5,224.5C 159.167,224.5 160.833,224.5 162.5,224.5C 162.5,230.167 162.5,235.833 162.5,241.5C 162.5,241.833 162.5,242.167 162.5,242.5C 161.511,237.025 161.178,231.358 161.5,225.5C 159.833,225.5 158.167,225.5 156.5,225.5 Z"/></g>
<g><path style="opacity:0.982" fill="#323a56" d="M 206.5,222.5 C 207.41,224.019 208.243,225.685 209,227.5C 209.383,226.944 209.883,226.611 210.5,226.5C 210.5,228.167 210.5,229.833 210.5,231.5C 212.5,231.5 214.5,231.5 216.5,231.5C 217.885,232.947 217.552,233.947 215.5,234.5C 213.958,233.699 212.292,233.366 210.5,233.5C 210.5,236.167 210.5,238.833 210.5,241.5C 209.167,241.5 207.833,241.5 206.5,241.5C 206.5,235.167 206.5,228.833 206.5,222.5 Z"/></g>
<g><path style="opacity:1" fill="#373a4f" d="M 127.5,221.5 C 128.5,221.5 129.5,221.5 130.5,221.5C 130.5,222.5 130.5,223.5 130.5,224.5C 130.5,225.5 130.5,226.5 130.5,227.5C 129.834,230.689 129.167,234.023 128.5,237.5C 127.056,238.981 126.389,238.648 126.5,236.5C 126.179,231.305 126.513,226.305 127.5,221.5 Z"/></g>
<g><path style="opacity:0.463" fill="#81889b" d="M 166.5,225.5 C 166.5,231.167 166.5,236.833 166.5,242.5C 165.167,242.5 163.833,242.5 162.5,242.5C 162.5,242.167 162.5,241.833 162.5,241.5C 163.5,241.5 164.5,241.5 165.5,241.5C 165.179,235.974 165.512,230.64 166.5,225.5 Z"/></g>
<g><path style="opacity:1" fill="#464e62" d="M 219.5,226.5 C 220.801,227.884 220.801,229.384 219.5,231C 220,231.5 220.5,232 221,232.5C 221.417,231.244 222.25,230.577 223.5,230.5C 223.288,232.384 222.288,233.717 220.5,234.5C 221.467,236.79 222.8,238.79 224.5,240.5C 223.081,241.451 221.415,241.784 219.5,241.5C 217.674,239.853 216.34,237.853 215.5,235.5C 215.5,235.167 215.5,234.833 215.5,234.5C 217.552,233.947 217.885,232.947 216.5,231.5C 216.5,231.167 216.5,230.833 216.5,230.5C 218.446,229.965 219.446,228.632 219.5,226.5 Z"/></g>
<g><path style="opacity:1" fill="#242a47" d="M 36.5,224.5 C 38.5,224.5 39.5,225.5 39.5,227.5C 38.7814,229.764 38.448,232.097 38.5,234.5C 38.6567,235.873 38.49,237.207 38,238.5C 37.3292,237.748 36.4959,237.414 35.5,237.5C 34.5206,234.375 34.1872,231.042 34.5,227.5C 35.9063,227.027 36.573,226.027 36.5,224.5 Z"/></g>
<g><path style="opacity:0.996" fill="#252849" d="M 74.5,229.5 C 74.5,230.833 74.5,232.167 74.5,233.5C 73.5,233.5 72.5,233.5 71.5,233.5C 71.5,233.167 71.5,232.833 71.5,232.5C 69.9912,228.926 70.9912,227.926 74.5,229.5 Z"/></g>
<g><path style="opacity:1" fill="#2d3751" d="M 94.5,227.5 C 95.391,228.11 96.391,228.443 97.5,228.5C 98.5137,229.674 99.847,230.34 101.5,230.5C 103.38,230.229 104.713,230.896 105.5,232.5C 106.093,237.719 105.093,238.386 102.5,234.5C 100.929,233.691 99.2624,233.357 97.5,233.5C 91.2017,233.232 88.8684,230.232 90.5,224.5C 91.1174,224.389 91.6174,224.056 92,223.5C 92.9344,224.858 93.7677,226.192 94.5,227.5 Z"/></g>
<g><path style="opacity:1" fill="#1d273f" d="M 182.5,229.5 C 181.539,231.265 181.205,233.265 181.5,235.5C 181.565,235.938 181.399,236.272 181,236.5C 179.064,234.192 178.231,231.525 178.5,228.5C 178.5,228.167 178.5,227.833 178.5,227.5C 179.933,226.047 181.6,225.213 183.5,225C 182.62,226.356 182.286,227.856 182.5,229.5 Z"/></g>
<g><path style="opacity:0.995" fill="#393e53" d="M 19.5,224.5 C 15.1522,226.807 13.6522,230.474 15,235.5C 17.5463,238.186 20.713,239.186 24.5,238.5C 26.0269,238.573 27.0269,237.906 27.5,236.5C 27.8333,236.5 28.1667,236.5 28.5,236.5C 28.5,237.5 28.5,238.5 28.5,239.5C 26.2574,240.312 23.9241,240.979 21.5,241.5C 18.8236,241.163 16.157,240.83 13.5,240.5C 12.8333,239.167 11.8333,238.167 10.5,237.5C 7.83333,233.833 7.83333,230.167 10.5,226.5C 11.8333,225.833 12.8333,224.833 13.5,223.5C 16.2298,223.527 18.7298,222.86 21,221.5C 21.8333,221.833 22.6667,222.167 23.5,222.5C 22.0508,223.172 20.7175,223.839 19.5,224.5 Z"/></g>
<g><path style="opacity:0.995" fill="#3f475e" d="M 74.5,229.5 C 76.1667,231.167 77.8333,232.833 79.5,234.5C 80.895,235.648 80.7284,236.648 79,237.5C 77.78,235.143 76.9467,235.476 76.5,238.5C 74.5,237.167 72.8333,235.5 71.5,233.5C 72.5,233.5 73.5,233.5 74.5,233.5C 74.5,232.167 74.5,230.833 74.5,229.5 Z"/></g>
<g><path style="opacity:0.682" fill="#848998" d="M 182.5,229.5 C 182.448,231.903 182.781,234.236 183.5,236.5C 182.833,236.167 182.167,235.833 181.5,235.5C 181.205,233.265 181.539,231.265 182.5,229.5 Z"/></g>
<g><path style="opacity:0.936" fill="#5e637a" d="M 52.5,233.5 C 53.2341,234.708 53.5674,236.041 53.5,237.5C 51.7839,237.629 50.1172,237.962 48.5,238.5C 50.1343,237.045 51.4676,235.378 52.5,233.5 Z"/></g>
<g><path style="opacity:1" fill="#343b51" d="M 246.5,238.5 C 245.719,240.628 244.719,240.795 243.5,239C 244.38,237.644 244.714,236.144 244.5,234.5C 244.557,233.391 244.89,232.391 245.5,231.5C 246.75,231.423 247.583,230.756 248,229.5C 248.21,231.058 248.71,232.391 249.5,233.5C 251.035,234.788 252.701,234.788 254.5,233.5C 254.058,232.261 253.391,231.261 252.5,230.5C 252.5,230.167 252.5,229.833 252.5,229.5C 251.192,228.768 249.858,227.934 248.5,227C 249.406,225.301 249.739,223.467 249.5,221.5C 250.884,220.199 252.384,220.199 254,221.5C 257.145,228.45 259.979,235.45 262.5,242.5C 260.5,242.5 258.5,242.5 256.5,242.5C 256.703,240.61 256.037,239.11 254.5,238C 251.739,237.278 249.073,237.445 246.5,238.5 Z M 252.5,229.5 C 252.5,229.833 252.5,230.167 252.5,230.5C 252.5,231.5 252.5,232.5 252.5,233.5C 251.5,233.5 250.5,233.5 249.5,233.5C 249.554,231.368 250.554,230.035 252.5,229.5 Z"/></g>
<g><path style="opacity:0.361" fill="#8c94a7" d="M 252.5,230.5 C 253.391,231.261 254.058,232.261 254.5,233.5C 252.701,234.788 251.035,234.788 249.5,233.5C 250.5,233.5 251.5,233.5 252.5,233.5C 252.5,232.5 252.5,231.5 252.5,230.5 Z"/></g>
<g><path style="opacity:0.996" fill="#1b243f" d="M 76.5,238.5 C 76.9467,235.476 77.78,235.143 79,237.5C 80.7284,236.648 80.895,235.648 79.5,234.5C 79.5,230.833 79.5,227.167 79.5,223.5C 80.1174,223.389 80.6174,223.056 81,222.5C 81.9032,228.281 81.5699,233.947 80,239.5C 78.9887,238.663 77.8221,238.33 76.5,238.5 Z"/></g>
<g><path style="opacity:0.316" fill="#959eae" d="M 215.5,234.5 C 215.5,234.833 215.5,235.167 215.5,235.5C 214.417,235.461 213.417,235.127 212.5,234.5C 211.52,237.086 211.187,239.753 211.5,242.5C 209.585,242.784 207.919,242.451 206.5,241.5C 207.833,241.5 209.167,241.5 210.5,241.5C 210.5,238.833 210.5,236.167 210.5,233.5C 212.292,233.366 213.958,233.699 215.5,234.5 Z"/></g>
<g><path style="opacity:0.251" fill="#a2a5ae" d="M 27.5,236.5 C 27.0269,237.906 26.0269,238.573 24.5,238.5C 24.9731,237.094 25.9731,236.427 27.5,236.5 Z"/></g>
<g><path style="opacity:1" fill="#545c71" d="M 105.5,232.5 C 107.2,236.073 106.533,239.239 103.5,242C 99.8333,242.667 96.1667,242.667 92.5,242C 91.5842,241.722 90.9175,241.222 90.5,240.5C 94.1947,241.46 97.8614,241.46 101.5,240.5C 99.6755,240.19 97.6755,239.523 95.5,238.5C 102.323,238.547 102.99,236.88 97.5,233.5C 99.2624,233.357 100.929,233.691 102.5,234.5C 105.093,238.386 106.093,237.719 105.5,232.5 Z"/></g>
<g><path style="opacity:0.306" fill="#8c92a8" d="M 196.5,234.5 C 196.167,236.833 194.833,238.167 192.5,238.5C 193.5,236.833 194.833,235.5 196.5,234.5 Z"/></g>
<g><path style="opacity:0.004" fill="#bfc2ca" d="M 10.5,237.5 C 11.8333,238.167 12.8333,239.167 13.5,240.5C 11.5,240.5 10.5,239.5 10.5,237.5 Z"/></g>
<g><path style="opacity:0.932" fill="#595b70" d="M 38.5,234.5 C 39.5,236.167 40.8333,237.5 42.5,238.5C 40.6453,238.272 39.8119,238.939 40,240.5C 41.7378,241.127 43.5711,241.46 45.5,241.5C 48.2786,241.08 50.9453,240.413 53.5,239.5C 53.0472,240.458 52.3805,241.292 51.5,242C 47.5,242.667 43.5,242.667 39.5,242C 37.6156,240.951 36.2823,239.451 35.5,237.5C 36.4959,237.414 37.3292,237.748 38,238.5C 38.49,237.207 38.6567,235.873 38.5,234.5 Z"/></g>
<g><path style="opacity:0.008" fill="#bfc4ce" d="M 55.5,237.5 C 55.5,238.833 54.8333,239.5 53.5,239.5C 53.8333,238.5 54.5,237.833 55.5,237.5 Z"/></g>
<g><path style="opacity:0.959" fill="#56576c" d="M 130.5,227.5 C 130.666,231.514 130.499,235.514 130,239.5C 129.617,240.056 129.117,240.389 128.5,240.5C 128.167,240.5 127.833,240.5 127.5,240.5C 126.71,239.599 125.71,238.932 124.5,238.5C 124.833,237.5 125.5,236.833 126.5,236.5C 126.389,238.648 127.056,238.981 128.5,237.5C 129.167,234.023 129.834,230.689 130.5,227.5 Z"/></g>
<g><path style="opacity:1" fill="#525769" d="M 178.5,228.5 C 178.231,231.525 179.064,234.192 181,236.5C 181.399,236.272 181.565,235.938 181.5,235.5C 182.167,235.833 182.833,236.167 183.5,236.5C 185.913,238.051 188.579,238.717 191.5,238.5C 189.166,239.124 186.833,239.957 184.5,241C 186.167,241.167 187.833,241.333 189.5,241.5C 192.988,240.721 196.321,239.721 199.5,238.5C 198.064,239.429 196.731,240.595 195.5,242C 189.285,243.54 183.785,242.373 179,238.5C 177.424,235.074 177.258,231.74 178.5,228.5 Z"/></g>
<g><path style="opacity:0.894" fill="#5e6376" d="M 76.5,238.5 C 77.8221,238.33 78.9887,238.663 80,239.5C 81.5699,233.947 81.9032,228.281 81,222.5C 80.6174,223.056 80.1174,223.389 79.5,223.5C 78.2264,222.811 78.2264,221.977 79.5,221C 80.7839,220.316 81.9505,220.483 83,221.5C 82.5381,228.254 82.7047,234.921 83.5,241.5C 80.1428,242.99 77.8095,241.99 76.5,238.5 Z"/></g>
<g><path style="opacity:0.443" fill="#606173" d="M 92.5,237.5 C 91.0937,237.973 90.427,238.973 90.5,240.5C 88.2417,240.225 87.9084,239.225 89.5,237.5C 90.6136,236.224 91.6136,236.224 92.5,237.5 Z"/></g>
<g><path style="opacity:0.998" fill="#2d304a" d="M 92.5,237.5 C 93.791,237.263 94.791,237.596 95.5,238.5C 97.6755,239.523 99.6755,240.19 101.5,240.5C 97.8614,241.46 94.1947,241.46 90.5,240.5C 90.427,238.973 91.0937,237.973 92.5,237.5 Z"/></g>
<g><path style="opacity:0.999" fill="#2c314c" d="M 55.5,237.5 C 54.5,237.833 53.8333,238.5 53.5,239.5C 50.9453,240.413 48.2786,241.08 45.5,241.5C 43.5711,241.46 41.7378,241.127 40,240.5C 39.8119,238.939 40.6453,238.272 42.5,238.5C 44.5,238.5 46.5,238.5 48.5,238.5C 50.1172,237.962 51.7839,237.629 53.5,237.5C 53.5674,236.041 53.2341,234.708 52.5,233.5C 53.3019,232.048 53.8019,230.382 54,228.5C 55.1488,231.393 55.6488,234.393 55.5,237.5 Z"/></g>
<g><path style="opacity:0.998" fill="#2d344b" d="M 117.5,235.5 C 117.414,236.496 117.748,237.329 118.5,238C 120.473,238.495 122.473,238.662 124.5,238.5C 125.71,238.932 126.71,239.599 127.5,240.5C 125.973,240.427 124.973,241.094 124.5,242.5C 121.813,242.664 119.146,242.497 116.5,242C 115.584,241.722 114.918,241.222 114.5,240.5C 113.582,234.225 113.249,227.892 113.5,221.5C 114.5,221.5 115.5,221.5 116.5,221.5C 116.181,226.363 116.514,231.03 117.5,235.5 Z"/></g>
<g><path style="opacity:0.98" fill="#333a50" d="M 142.5,221.5 C 142.631,226.584 142.631,231.918 142.5,237.5C 143.514,238.765 145.014,239.431 147,239.5C 148.707,239.492 150.207,239.158 151.5,238.5C 152.167,237.167 152.833,237.167 153.5,238.5C 153.5,239.5 153.5,240.5 153.5,241.5C 149.298,241.183 145.298,241.517 141.5,242.5C 140.5,242.5 139.5,242.5 138.5,242.5C 138.5,235.5 138.5,228.5 138.5,221.5C 139.833,221.5 141.167,221.5 142.5,221.5 Z"/></g>
<g><path style="opacity:0.345" fill="#a2a8b7" d="M 142.5,237.5 C 145.391,238.403 148.391,238.736 151.5,238.5C 150.207,239.158 148.707,239.492 147,239.5C 145.014,239.431 143.514,238.765 142.5,237.5 Z"/></g>
<g><path style="opacity:0.941" fill="#545867" d="M 244.5,234.5 C 244.714,236.144 244.38,237.644 243.5,239C 244.719,240.795 245.719,240.628 246.5,238.5C 246.5,239.833 246.5,241.167 246.5,242.5C 244.833,242.5 243.167,242.5 241.5,242.5C 241.62,239.422 242.62,236.755 244.5,234.5 Z"/></g>
<g><path style="opacity:0.696" fill="#5e6070" d="M 28.5,236.5 C 30.0769,238.994 29.4103,240.827 26.5,242C 22.8333,242.667 19.1667,242.667 15.5,242C 14.5842,241.722 13.9175,241.222 13.5,240.5C 16.157,240.83 18.8236,241.163 21.5,241.5C 23.9241,240.979 26.2574,240.312 28.5,239.5C 28.5,238.5 28.5,237.5 28.5,236.5 Z"/></g>
<g><path style="opacity:0.008" fill="#d0d0d9" d="M 127.5,240.5 C 127.833,240.5 128.167,240.5 128.5,240.5C 127.486,241.674 126.153,242.34 124.5,242.5C 124.973,241.094 125.973,240.427 127.5,240.5 Z"/></g>
<g><path style="opacity:0.271" fill="#727683" d="M 153.5,238.5 C 154.434,239.568 154.768,240.901 154.5,242.5C 150.167,242.5 145.833,242.5 141.5,242.5C 145.298,241.517 149.298,241.183 153.5,241.5C 153.5,240.5 153.5,239.5 153.5,238.5 Z"/></g>
<g><path style="opacity:0.165" fill="#bec3c8" d="M 224.5,240.5 C 225.043,240.56 225.376,240.893 225.5,241.5C 223.364,242.793 221.364,242.793 219.5,241.5C 221.415,241.784 223.081,241.451 224.5,240.5 Z"/></g>
</svg>
